<svg xmlns="http://www.w3.org/2000/svg" width="980" height="640" viewBox="0 0 980 640"><rect width="100%" height="100%" fill="white"/>
  <rect x="105" y="70" width="730" height="440" fill="none" stroke="#1f2937" stroke-width="1.2"/>
  <text x="470" y="556" text-anchor="middle" font-size="18" fill="#111827">Bessel argument x = 2 g sqrt(zeta tau)</text>
  <text transform="translate(50,290) rotate(-90)" text-anchor="middle" font-size="18" fill="#111827">log10 normalized amplitude</text>
  <text x="470" y="36" text-anchor="middle" font-size="20" font-weight="600" fill="#111827">Bessel solution and its limiting approximations</text><line x1="105" y1="70" x2="105" y2="510" stroke="#e5e7eb"/><text x="105" y="534" text-anchor="middle" font-size="13">0</text><line x1="105" y1="510" x2="835" y2="510" stroke="#e5e7eb"/><text x="93" y="514" text-anchor="end" font-size="13">0</text><line x1="251" y1="70" x2="251" y2="510" stroke="#e5e7eb"/><text x="251" y="534" text-anchor="middle" font-size="13">2</text><line x1="105" y1="422" x2="835" y2="422" stroke="#e5e7eb"/><text x="93" y="426" text-anchor="end" font-size="13">1</text><line x1="397" y1="70" x2="397" y2="510" stroke="#e5e7eb"/><text x="397" y="534" text-anchor="middle" font-size="13">4</text><line x1="105" y1="334" x2="835" y2="334" stroke="#e5e7eb"/><text x="93" y="338" text-anchor="end" font-size="13">2</text><line x1="543" y1="70" x2="543" y2="510" stroke="#e5e7eb"/><text x="543" y="534" text-anchor="middle" font-size="13">6</text><line x1="105" y1="246" x2="835" y2="246" stroke="#e5e7eb"/><text x="93" y="250" text-anchor="end" font-size="13">3</text><line x1="689" y1="70" x2="689" y2="510" stroke="#e5e7eb"/><text x="689" y="534" text-anchor="middle" font-size="13">8</text><line x1="105" y1="158" x2="835" y2="158" stroke="#e5e7eb"/><text x="93" y="162" text-anchor="end" font-size="13">4</text><line x1="835" y1="70" x2="835" y2="510" stroke="#e5e7eb"/><text x="835" y="534" text-anchor="middle" font-size="13">10</text><line x1="105" y1="70" x2="835" y2="70" stroke="#e5e7eb"/><text x="93" y="74" text-anchor="end" font-size="13">5</text><rect x="105" y="70" width="730" height="440" fill="none" stroke="#111827"/><path d="M106.46,510.00 L107.92,509.98 L109.38,509.97 L110.84,509.94 L112.30,509.90 L113.76,509.86 L115.22,509.81 L116.68,509.76 L118.14,509.69 L119.60,509.62 L121.06,509.54 L122.52,509.45 L123.98,509.36 L125.44,509.25 L126.90,509.14 L128.36,509.03 L129.82,508.90 L131.28,508.77 L132.74,508.63 L134.20,508.49 L135.66,508.33 L137.12,508.17 L138.58,508.00 L140.04,507.83 L141.50,507.65 L142.96,507.46 L144.42,507.26 L145.88,507.06 L147.34,506.85 L148.80,506.63 L150.26,506.41 L151.72,506.18 L153.18,505.95 L154.64,505.70 L156.10,505.45 L157.56,505.20 L159.02,504.94 L160.48,504.67 L161.94,504.39 L163.40,504.11 L164.86,503.83 L166.32,503.53 L167.78,503.24 L169.24,502.93 L170.70,502.62 L172.16,502.30 L173.62,501.98 L175.08,501.66 L176.54,501.32 L178.00,500.98 L179.46,500.64 L180.92,500.29 L182.38,499.94 L183.84,499.58 L185.30,499.21 L186.76,498.84 L188.22,498.47 L189.68,498.09 L191.14,497.70 L192.60,497.31 L194.06,496.92 L195.52,496.52 L196.98,496.12 L198.44,495.71 L199.90,495.29 L201.36,494.88 L202.82,494.46 L204.28,494.03 L205.74,493.60 L207.20,493.17 L208.66,492.73 L210.12,492.29 L211.58,491.84 L213.04,491.39 L214.50,490.94 L215.96,490.48 L217.42,490.02 L218.88,489.55 L220.34,489.09 L221.80,488.61 L223.26,488.14 L224.72,487.66 L226.18,487.18 L227.64,486.69 L229.10,486.20 L230.56,485.71 L232.02,485.21 L233.48,484.72 L234.94,484.21 L236.40,483.71 L237.86,483.20 L239.32,482.69 L240.78,482.18 L242.24,481.66 L243.70,481.14 L245.16,480.62 L246.62,480.10 L248.08,479.57 L249.54,479.04 L251.00,478.51 L252.46,477.97 L253.92,477.44 L255.38,476.90 L256.84,476.36 L258.30,475.81 L259.76,475.26 L261.22,474.72 L262.68,474.17 L264.14,473.61 L265.60,473.06 L267.06,472.50 L268.52,471.94 L269.98,471.38 L271.44,470.81 L272.90,470.25 L274.36,469.68 L275.82,469.11 L277.28,468.54 L278.74,467.97 L280.20,467.39 L281.66,466.81 L283.12,466.24 L284.58,465.65 L286.04,465.07 L287.50,464.49 L288.96,463.90 L290.42,463.32 L291.88,462.73 L293.34,462.14 L294.80,461.54 L296.26,460.95 L297.72,460.36 L299.18,459.76 L300.64,459.16 L302.10,458.56 L303.56,457.96 L305.02,457.36 L306.48,456.76 L307.94,456.15 L309.40,455.54 L310.86,454.94 L312.32,454.33 L313.78,453.72 L315.24,453.11 L316.70,452.49 L318.16,451.88 L319.62,451.27 L321.08,450.65 L322.54,450.03 L324.00,449.41 L325.46,448.79 L326.92,448.17 L328.38,447.55 L329.84,446.93 L331.30,446.30 L332.76,445.68 L334.22,445.05 L335.68,444.43 L337.14,443.80 L338.60,443.17 L340.06,442.54 L341.52,441.91 L342.98,441.27 L344.44,440.64 L345.90,440.01 L347.36,439.37 L348.82,438.74 L350.28,438.10 L351.74,437.46 L353.20,436.82 L354.66,436.19 L356.12,435.55 L357.58,434.90 L359.04,434.26 L360.50,433.62 L361.96,432.98 L363.42,432.33 L364.88,431.69 L366.34,431.04 L367.80,430.40 L369.26,429.75 L370.72,429.10 L372.18,428.45 L373.64,427.80 L375.10,427.15 L376.56,426.50 L378.02,425.85 L379.48,425.20 L380.94,424.55 L382.40,423.89 L383.86,423.24 L385.32,422.58 L386.78,421.93 L388.24,421.27 L389.70,420.62 L391.16,419.96 L392.62,419.30 L394.08,418.64 L395.54,417.98 L397.00,417.32 L398.46,416.66 L399.92,416.00 L401.38,415.34 L402.84,414.68 L404.30,414.02 L405.76,413.35 L407.22,412.69 L408.68,412.02 L410.14,411.36 L411.60,410.69 L413.06,410.03 L414.52,409.36 L415.98,408.69 L417.44,408.03 L418.90,407.36 L420.36,406.69 L421.82,406.02 L423.28,405.35 L424.74,404.68 L426.20,404.01 L427.66,403.34 L429.12,402.67 L430.58,402.00 L432.04,401.33 L433.50,400.65 L434.96,399.98 L436.42,399.31 L437.88,398.63 L439.34,397.96 L440.80,397.28 L442.26,396.61 L443.72,395.93 L445.18,395.26 L446.64,394.58 L448.10,393.90 L449.56,393.23 L451.02,392.55 L452.48,391.87 L453.94,391.19 L455.40,390.51 L456.86,389.83 L458.32,389.15 L459.78,388.47 L461.24,387.79 L462.70,387.11 L464.16,386.43 L465.62,385.75 L467.08,385.07 L468.54,384.38 L470.00,383.70 L471.46,383.02 L472.92,382.34 L474.38,381.65 L475.84,380.97 L477.30,380.28 L478.76,379.60 L480.22,378.91 L481.68,378.23 L483.14,377.54 L484.60,376.86 L486.06,376.17 L487.52,375.48 L488.98,374.80 L490.44,374.11 L491.90,373.42 L493.36,372.73 L494.82,372.04 L496.28,371.36 L497.74,370.67 L499.20,369.98 L500.66,369.29 L502.12,368.60 L503.58,367.91 L505.04,367.22 L506.50,366.53 L507.96,365.84 L509.42,365.14 L510.88,364.45 L512.34,363.76 L513.80,363.07 L515.26,362.38 L516.72,361.68 L518.18,360.99 L519.64,360.30 L521.10,359.60 L522.56,358.91 L524.02,358.22 L525.48,357.52 L526.94,356.83 L528.40,356.13 L529.86,355.44 L531.32,354.74 L532.78,354.05 L534.24,353.35 L535.70,352.66 L537.16,351.96 L538.62,351.26 L540.08,350.57 L541.54,349.87 L543.00,349.17 L544.46,348.47 L545.92,347.78 L547.38,347.08 L548.84,346.38 L550.30,345.68 L551.76,344.98 L553.22,344.28 L554.68,343.59 L556.14,342.89 L557.60,342.19 L559.06,341.49 L560.52,340.79 L561.98,340.09 L563.44,339.39 L564.90,338.69 L566.36,337.98 L567.82,337.28 L569.28,336.58 L570.74,335.88 L572.20,335.18 L573.66,334.48 L575.12,333.78 L576.58,333.07 L578.04,332.37 L579.50,331.67 L580.96,330.96 L582.42,330.26 L583.88,329.56 L585.34,328.85 L586.80,328.15 L588.26,327.45 L589.72,326.74 L591.18,326.04 L592.64,325.33 L594.10,324.63 L595.56,323.92 L597.02,323.22 L598.48,322.51 L599.94,321.81 L601.40,321.10 L602.86,320.40 L604.32,319.69 L605.78,318.99 L607.24,318.28 L608.70,317.57 L610.16,316.87 L611.62,316.16 L613.08,315.45 L614.54,314.75 L616.00,314.04 L617.46,313.33 L618.92,312.62 L620.38,311.91 L621.84,311.21 L623.30,310.50 L624.76,309.79 L626.22,309.08 L627.68,308.37 L629.14,307.66 L630.60,306.96 L632.06,306.25 L633.52,305.54 L634.98,304.83 L636.44,304.12 L637.90,303.41 L639.36,302.70 L640.82,301.99 L642.28,301.28 L643.74,300.57 L645.20,299.86 L646.66,299.15 L648.12,298.43 L649.58,297.72 L651.04,297.01 L652.50,296.30 L653.96,295.59 L655.42,294.88 L656.88,294.17 L658.34,293.45 L659.80,292.74 L661.26,292.03 L662.72,291.32 L664.18,290.61 L665.64,289.89 L667.10,289.18 L668.56,288.47 L670.02,287.75 L671.48,287.04 L672.94,286.33 L674.40,285.61 L675.86,284.90 L677.32,284.19 L678.78,283.47 L680.24,282.76 L681.70,282.04 L683.16,281.33 L684.62,280.62 L686.08,279.90 L687.54,279.19 L689.00,278.47 L690.46,277.76 L691.92,277.04 L693.38,276.33 L694.84,275.61 L696.30,274.90 L697.76,274.18 L699.22,273.46 L700.68,272.75 L702.14,272.03 L703.60,271.32 L705.06,270.60 L706.52,269.88 L707.98,269.17 L709.44,268.45 L710.90,267.73 L712.36,267.02 L713.82,266.30 L715.28,265.58 L716.74,264.87 L718.20,264.15 L719.66,263.43 L721.12,262.72 L722.58,262.00 L724.04,261.28 L725.50,260.56 L726.96,259.84 L728.42,259.13 L729.88,258.41 L731.34,257.69 L732.80,256.97 L734.26,256.25 L735.72,255.53 L737.18,254.82 L738.64,254.10 L740.10,253.38 L741.56,252.66 L743.02,251.94 L744.48,251.22 L745.94,250.50 L747.40,249.78 L748.86,249.06 L750.32,248.34 L751.78,247.62 L753.24,246.90 L754.70,246.18 L756.16,245.46 L757.62,244.74 L759.08,244.02 L760.54,243.30 L762.00,242.58 L763.46,241.86 L764.92,241.14 L766.38,240.42 L767.84,239.70 L769.30,238.98 L770.76,238.26 L772.22,237.53 L773.68,236.81 L775.14,236.09 L776.60,235.37 L778.06,234.65 L779.52,233.93 L780.98,233.21 L782.44,232.48 L783.90,231.76 L785.36,231.04 L786.82,230.32 L788.28,229.60 L789.74,228.87 L791.20,228.15 L792.66,227.43 L794.12,226.71 L795.58,225.98 L797.04,225.26 L798.50,224.54 L799.96,223.81 L801.42,223.09 L802.88,222.37 L804.34,221.64 L805.80,220.92 L807.26,220.20 L808.72,219.47 L810.18,218.75 L811.64,218.03 L813.10,217.30 L814.56,216.58 L816.02,215.86 L817.48,215.13 L818.94,214.41 L820.40,213.68 L821.86,212.96 L823.32,212.23 L824.78,211.51 L826.24,210.79 L827.70,210.06 L829.16,209.34 L830.62,208.61 L832.08,207.89 L833.54,207.16 L835.00,206.44 " fill="none" stroke="#111827" stroke-width="3" stroke-dasharray=""/><line x1="863" y1="100" x2="893" y2="100" stroke="#111827" stroke-width="3" stroke-dasharray=""/><text x="903" y="105" font-size="14" fill="#111827">exact I0(x)</text><path d="M106.46,510.00 L107.92,509.98 L109.38,509.97 L110.84,509.94 L112.30,509.90 L113.76,509.86 L115.22,509.81 L116.68,509.76 L118.14,509.69 L119.60,509.62 L121.06,509.54 L122.52,509.45 L123.98,509.36 L125.44,509.26 L126.90,509.15 L128.36,509.03 L129.82,508.91 L131.28,508.78 L132.74,508.64 L134.20,508.50 L135.66,508.35 L137.12,508.19 L138.58,508.03 L140.04,507.86 L141.50,507.68 L142.96,507.50 L144.42,507.31 L145.88,507.12 L147.34,506.91 L148.80,506.71 L150.26,506.49 L151.72,506.27 L153.18,506.05 L154.64,505.82 L156.10,505.58 L157.56,505.34 L159.02,505.10 L160.48,504.85 L161.94,504.59 L163.40,504.33 L164.86,504.06 L166.32,503.79 L167.78,503.52 L169.24,503.24 L170.70,502.95 L172.16,502.66 L173.62,502.37 L175.08,502.08 L176.54,501.78 L178.00,501.47 L179.46,501.16 L180.92,500.85 L182.38,500.54 L183.84,500.22 L185.30,499.90 L186.76,499.58 L188.22,499.25 L189.68,498.92 L191.14,498.58 L192.60,498.25 L194.06,497.91 L195.52,497.57 L196.98,497.23 L198.44,496.88 L199.90,496.53 L201.36,496.18 L202.82,495.83 L204.28,495.47 L205.74,495.12 L207.20,494.76 L208.66,494.40 L210.12,494.04 L211.58,493.67 L213.04,493.31 L214.50,492.94 L215.96,492.58 L217.42,492.21 L218.88,491.84 L220.34,491.47 L221.80,491.09 L223.26,490.72 L224.72,490.35 L226.18,489.97 L227.64,489.59 L229.10,489.22 L230.56,488.84 L232.02,488.46 L233.48,488.08 L234.94,487.70 L236.40,487.32 L237.86,486.94 L239.32,486.56 L240.78,486.18 L242.24,485.80 L243.70,485.42 L245.16,485.04 L246.62,484.66 L248.08,484.27 L249.54,483.89 L251.00,483.51 L252.46,483.13 L253.92,482.75 L255.38,482.36 L256.84,481.98 L258.30,481.60 L259.76,481.22 L261.22,480.84 L262.68,480.45 L264.14,480.07 L265.60,479.69 L267.06,479.31 L268.52,478.93 L269.98,478.55 L271.44,478.17 L272.90,477.80 L274.36,477.42 L275.82,477.04 L277.28,476.66 L278.74,476.29 L280.20,475.91 L281.66,475.53 L283.12,475.16 L284.58,474.78 L286.04,474.41 L287.50,474.04 L288.96,473.67 L290.42,473.29 L291.88,472.92 L293.34,472.55 L294.80,472.18 L296.26,471.81 L297.72,471.44 L299.18,471.08 L300.64,470.71 L302.10,470.34 L303.56,469.98 L305.02,469.61 L306.48,469.25 L307.94,468.89 L309.40,468.53 L310.86,468.17 L312.32,467.80 L313.78,467.45 L315.24,467.09 L316.70,466.73 L318.16,466.37 L319.62,466.02 L321.08,465.66 L322.54,465.31 L324.00,464.95 L325.46,464.60 L326.92,464.25 L328.38,463.90 L329.84,463.55 L331.30,463.20 L332.76,462.85 L334.22,462.51 L335.68,462.16 L337.14,461.82 L338.60,461.47 L340.06,461.13 L341.52,460.79 L342.98,460.45 L344.44,460.11 L345.90,459.77 L347.36,459.43 L348.82,459.09 L350.28,458.75 L351.74,458.42 L353.20,458.08 L354.66,457.75 L356.12,457.42 L357.58,457.09 L359.04,456.76 L360.50,456.43 L361.96,456.10 L363.42,455.77 L364.88,455.44 L366.34,455.12 L367.80,454.79 L369.26,454.47 L370.72,454.14 L372.18,453.82 L373.64,453.50 L375.10,453.18 L376.56,452.86 L378.02,452.54 L379.48,452.23 L380.94,451.91 L382.40,451.59 L383.86,451.28 L385.32,450.97 L386.78,450.65 L388.24,450.34 L389.70,450.03 L391.16,449.72 L392.62,449.41 L394.08,449.10 L395.54,448.80 L397.00,448.49 L398.46,448.19 L399.92,447.88 L401.38,447.58 L402.84,447.27 L404.30,446.97 L405.76,446.67 L407.22,446.37 L408.68,446.07 L410.14,445.78 L411.60,445.48 L413.06,445.18 L414.52,444.89 L415.98,444.59 L417.44,444.30 L418.90,444.01 L420.36,443.71 L421.82,443.42 L423.28,443.13 L424.74,442.84 L426.20,442.56 L427.66,442.27 L429.12,441.98 L430.58,441.70 L432.04,441.41 L433.50,441.13 L434.96,440.84 L436.42,440.56 L437.88,440.28 L439.34,440.00 L440.80,439.72 L442.26,439.44 L443.72,439.16 L445.18,438.88 L446.64,438.61 L448.10,438.33 L449.56,438.06 L451.02,437.78 L452.48,437.51 L453.94,437.24 L455.40,436.96 L456.86,436.69 L458.32,436.42 L459.78,436.15 L461.24,435.89 L462.70,435.62 L464.16,435.35 L465.62,435.08 L467.08,434.82 L468.54,434.55 L470.00,434.29 L471.46,434.03 L472.92,433.76 L474.38,433.50 L475.84,433.24 L477.30,432.98 L478.76,432.72 L480.22,432.46 L481.68,432.21 L483.14,431.95 L484.60,431.69 L486.06,431.44 L487.52,431.18 L488.98,430.93 L490.44,430.67 L491.90,430.42 L493.36,430.17 L494.82,429.92 L496.28,429.67 L497.74,429.42 L499.20,429.17 L500.66,428.92 L502.12,428.67 L503.58,428.42 L505.04,428.18 L506.50,427.93 L507.96,427.69 L509.42,427.44 L510.88,427.20 L512.34,426.95 L513.80,426.71 L515.26,426.47 L516.72,426.23 L518.18,425.99 L519.64,425.75 L521.10,425.51 L522.56,425.27 L524.02,425.03 L525.48,424.80 L526.94,424.56 L528.40,424.32 L529.86,424.09 L531.32,423.85 L532.78,423.62 L534.24,423.39 L535.70,423.15 L537.16,422.92 L538.62,422.69 L540.08,422.46 L541.54,422.23 L543.00,422.00 L544.46,421.77 L545.92,421.54 L547.38,421.31 L548.84,421.09 L550.30,420.86 L551.76,420.64 L553.22,420.41 L554.68,420.18 L556.14,419.96 L557.60,419.74 L559.06,419.51 L560.52,419.29 L561.98,419.07 L563.44,418.85 L564.90,418.63 L566.36,418.41 L567.82,418.19 L569.28,417.97 L570.74,417.75 L572.20,417.53 L573.66,417.32 L575.12,417.10 L576.58,416.88 L578.04,416.67 L579.50,416.45 L580.96,416.24 L582.42,416.02 L583.88,415.81 L585.34,415.60 L586.80,415.38 L588.26,415.17 L589.72,414.96 L591.18,414.75 L592.64,414.54 L594.10,414.33 L595.56,414.12 L597.02,413.91 L598.48,413.70 L599.94,413.50 L601.40,413.29 L602.86,413.08 L604.32,412.88 L605.78,412.67 L607.24,412.47 L608.70,412.26 L610.16,412.06 L611.62,411.85 L613.08,411.65 L614.54,411.45 L616.00,411.25 L617.46,411.04 L618.92,410.84 L620.38,410.64 L621.84,410.44 L623.30,410.24 L624.76,410.04 L626.22,409.84 L627.68,409.65 L629.14,409.45 L630.60,409.25 L632.06,409.05 L633.52,408.86 L634.98,408.66 L636.44,408.47 L637.90,408.27 L639.36,408.08 L640.82,407.88 L642.28,407.69 L643.74,407.49 L645.20,407.30 L646.66,407.11 L648.12,406.92 L649.58,406.73 L651.04,406.54 L652.50,406.35 L653.96,406.15 L655.42,405.97 L656.88,405.78 L658.34,405.59 L659.80,405.40 L661.26,405.21 L662.72,405.02 L664.18,404.84 L665.64,404.65 L667.10,404.46 L668.56,404.28 L670.02,404.09 L671.48,403.91 L672.94,403.72 L674.40,403.54 L675.86,403.36 L677.32,403.17 L678.78,402.99 L680.24,402.81 L681.70,402.62 L683.16,402.44 L684.62,402.26 L686.08,402.08 L687.54,401.90 L689.00,401.72 L690.46,401.54 L691.92,401.36 L693.38,401.18 L694.84,401.00 L696.30,400.83 L697.76,400.65 L699.22,400.47 L700.68,400.29 L702.14,400.12 L703.60,399.94 L705.06,399.77 L706.52,399.59 L707.98,399.42 L709.44,399.24 L710.90,399.07 L712.36,398.89 L713.82,398.72 L715.28,398.55 L716.74,398.37 L718.20,398.20 L719.66,398.03 L721.12,397.86 L722.58,397.69 L724.04,397.51 L725.50,397.34 L726.96,397.17 L728.42,397.00 L729.88,396.83 L731.34,396.67 L732.80,396.50 L734.26,396.33 L735.72,396.16 L737.18,395.99 L738.64,395.82 L740.10,395.66 L741.56,395.49 L743.02,395.32 L744.48,395.16 L745.94,394.99 L747.40,394.83 L748.86,394.66 L750.32,394.50 L751.78,394.33 L753.24,394.17 L754.70,394.01 L756.16,393.84 L757.62,393.68 L759.08,393.52 L760.54,393.35 L762.00,393.19 L763.46,393.03 L764.92,392.87 L766.38,392.71 L767.84,392.55 L769.30,392.39 L770.76,392.23 L772.22,392.07 L773.68,391.91 L775.14,391.75 L776.60,391.59 L778.06,391.43 L779.52,391.27 L780.98,391.12 L782.44,390.96 L783.90,390.80 L785.36,390.64 L786.82,390.49 L788.28,390.33 L789.74,390.17 L791.20,390.02 L792.66,389.86 L794.12,389.71 L795.58,389.55 L797.04,389.40 L798.50,389.24 L799.96,389.09 L801.42,388.94 L802.88,388.78 L804.34,388.63 L805.80,388.48 L807.26,388.33 L808.72,388.17 L810.18,388.02 L811.64,387.87 L813.10,387.72 L814.56,387.57 L816.02,387.42 L817.48,387.27 L818.94,387.12 L820.40,386.97 L821.86,386.82 L823.32,386.67 L824.78,386.52 L826.24,386.37 L827.70,386.22 L829.16,386.07 L830.62,385.92 L832.08,385.78 L833.54,385.63 L835.00,385.48 " fill="none" stroke="#2563eb" stroke-width="3" stroke-dasharray="8 7"/><line x1="863" y1="130" x2="893" y2="130" stroke="#2563eb" stroke-width="3" stroke-dasharray="8 7"/><text x="903" y="135" font-size="14" fill="#111827">small 1+x^2/4</text><path d="M106.46,469.60 L107.92,482.08 L109.38,489.07 L110.84,493.80 L112.30,497.30 L113.76,500.02 L115.22,502.20 L116.68,503.99 L118.14,505.47 L119.60,506.72 L121.06,507.78 L122.52,508.68 L123.98,509.44 L125.44,510.00 L126.90,510.00 L128.36,510.00 L129.82,510.00 L131.28,510.00 L132.74,510.00 L134.20,510.00 L135.66,510.00 L137.12,510.00 L138.58,510.00 L140.04,510.00 L141.50,510.00 L142.96,510.00 L144.42,510.00 L145.88,510.00 L147.34,510.00 L148.80,510.00 L150.26,510.00 L151.72,510.00 L153.18,510.00 L154.64,510.00 L156.10,510.00 L157.56,510.00 L159.02,510.00 L160.48,510.00 L161.94,510.00 L163.40,510.00 L164.86,509.99 L166.32,509.69 L167.78,509.37 L169.24,509.05 L170.70,508.71 L172.16,508.37 L173.62,508.01 L175.08,507.65 L176.54,507.28 L178.00,506.90 L179.46,506.52 L180.92,506.12 L182.38,505.72 L183.84,505.32 L185.30,504.90 L186.76,504.48 L188.22,504.06 L189.68,503.62 L191.14,503.19 L192.60,502.74 L194.06,502.29 L195.52,501.84 L196.98,501.38 L198.44,500.92 L199.90,500.45 L201.36,499.98 L202.82,499.50 L204.28,499.02 L205.74,498.53 L207.20,498.04 L208.66,497.55 L210.12,497.05 L211.58,496.55 L213.04,496.05 L214.50,495.54 L215.96,495.03 L217.42,494.52 L218.88,494.00 L220.34,493.48 L221.80,492.95 L223.26,492.43 L224.72,491.90 L226.18,491.36 L227.64,490.83 L229.10,490.29 L230.56,489.75 L232.02,489.20 L233.48,488.66 L234.94,488.11 L236.40,487.56 L237.86,487.01 L239.32,486.45 L240.78,485.89 L242.24,485.33 L243.70,484.77 L245.16,484.21 L246.62,483.64 L248.08,483.07 L249.54,482.50 L251.00,481.93 L252.46,481.36 L253.92,480.78 L255.38,480.20 L256.84,479.62 L258.30,479.04 L259.76,478.46 L261.22,477.87 L262.68,477.29 L264.14,476.70 L265.60,476.11 L267.06,475.52 L268.52,474.92 L269.98,474.33 L271.44,473.73 L272.90,473.13 L274.36,472.54 L275.82,471.94 L277.28,471.33 L278.74,470.73 L280.20,470.13 L281.66,469.52 L283.12,468.91 L284.58,468.30 L286.04,467.70 L287.50,467.08 L288.96,466.47 L290.42,465.86 L291.88,465.24 L293.34,464.63 L294.80,464.01 L296.26,463.39 L297.72,462.78 L299.18,462.16 L300.64,461.53 L302.10,460.91 L303.56,460.29 L305.02,459.66 L306.48,459.04 L307.94,458.41 L309.40,457.78 L310.86,457.16 L312.32,456.53 L313.78,455.90 L315.24,455.27 L316.70,454.63 L318.16,454.00 L319.62,453.37 L321.08,452.73 L322.54,452.10 L324.00,451.46 L325.46,450.82 L326.92,450.18 L328.38,449.54 L329.84,448.90 L331.30,448.26 L332.76,447.62 L334.22,446.98 L335.68,446.34 L337.14,445.69 L338.60,445.05 L340.06,444.40 L341.52,443.76 L342.98,443.11 L344.44,442.46 L345.90,441.82 L347.36,441.17 L348.82,440.52 L350.28,439.87 L351.74,439.22 L353.20,438.56 L354.66,437.91 L356.12,437.26 L357.58,436.61 L359.04,435.95 L360.50,435.30 L361.96,434.64 L363.42,433.98 L364.88,433.33 L366.34,432.67 L367.80,432.01 L369.26,431.35 L370.72,430.70 L372.18,430.04 L373.64,429.38 L375.10,428.71 L376.56,428.05 L378.02,427.39 L379.48,426.73 L380.94,426.07 L382.40,425.40 L383.86,424.74 L385.32,424.07 L386.78,423.41 L388.24,422.74 L389.70,422.08 L391.16,421.41 L392.62,420.74 L394.08,420.08 L395.54,419.41 L397.00,418.74 L398.46,418.07 L399.92,417.40 L401.38,416.73 L402.84,416.06 L404.30,415.39 L405.76,414.72 L407.22,414.05 L408.68,413.37 L410.14,412.70 L411.60,412.03 L413.06,411.35 L414.52,410.68 L415.98,410.01 L417.44,409.33 L418.90,408.66 L420.36,407.98 L421.82,407.30 L423.28,406.63 L424.74,405.95 L426.20,405.27 L427.66,404.60 L429.12,403.92 L430.58,403.24 L432.04,402.56 L433.50,401.88 L434.96,401.20 L436.42,400.52 L437.88,399.84 L439.34,399.16 L440.80,398.48 L442.26,397.80 L443.72,397.12 L445.18,396.43 L446.64,395.75 L448.10,395.07 L449.56,394.38 L451.02,393.70 L452.48,393.02 L453.94,392.33 L455.40,391.65 L456.86,390.96 L458.32,390.28 L459.78,389.59 L461.24,388.91 L462.70,388.22 L464.16,387.53 L465.62,386.85 L467.08,386.16 L468.54,385.47 L470.00,384.79 L471.46,384.10 L472.92,383.41 L474.38,382.72 L475.84,382.03 L477.30,381.34 L478.76,380.65 L480.22,379.96 L481.68,379.27 L483.14,378.58 L484.60,377.89 L486.06,377.20 L487.52,376.51 L488.98,375.82 L490.44,375.13 L491.90,374.43 L493.36,373.74 L494.82,373.05 L496.28,372.36 L497.74,371.66 L499.20,370.97 L500.66,370.27 L502.12,369.58 L503.58,368.89 L505.04,368.19 L506.50,367.50 L507.96,366.80 L509.42,366.11 L510.88,365.41 L512.34,364.72 L513.80,364.02 L515.26,363.32 L516.72,362.63 L518.18,361.93 L519.64,361.23 L521.10,360.54 L522.56,359.84 L524.02,359.14 L525.48,358.44 L526.94,357.75 L528.40,357.05 L529.86,356.35 L531.32,355.65 L532.78,354.95 L534.24,354.25 L535.70,353.55 L537.16,352.85 L538.62,352.15 L540.08,351.45 L541.54,350.75 L543.00,350.05 L544.46,349.35 L545.92,348.65 L547.38,347.95 L548.84,347.25 L550.30,346.55 L551.76,345.84 L553.22,345.14 L554.68,344.44 L556.14,343.74 L557.60,343.03 L559.06,342.33 L560.52,341.63 L561.98,340.93 L563.44,340.22 L564.90,339.52 L566.36,338.81 L567.82,338.11 L569.28,337.41 L570.74,336.70 L572.20,336.00 L573.66,335.29 L575.12,334.59 L576.58,333.88 L578.04,333.18 L579.50,332.47 L580.96,331.77 L582.42,331.06 L583.88,330.35 L585.34,329.65 L586.80,328.94 L588.26,328.24 L589.72,327.53 L591.18,326.82 L592.64,326.11 L594.10,325.41 L595.56,324.70 L597.02,323.99 L598.48,323.28 L599.94,322.58 L601.40,321.87 L602.86,321.16 L604.32,320.45 L605.78,319.74 L607.24,319.03 L608.70,318.33 L610.16,317.62 L611.62,316.91 L613.08,316.20 L614.54,315.49 L616.00,314.78 L617.46,314.07 L618.92,313.36 L620.38,312.65 L621.84,311.94 L623.30,311.23 L624.76,310.52 L626.22,309.81 L627.68,309.10 L629.14,308.38 L630.60,307.67 L632.06,306.96 L633.52,306.25 L634.98,305.54 L636.44,304.83 L637.90,304.12 L639.36,303.40 L640.82,302.69 L642.28,301.98 L643.74,301.27 L645.20,300.55 L646.66,299.84 L648.12,299.13 L649.58,298.41 L651.04,297.70 L652.50,296.99 L653.96,296.27 L655.42,295.56 L656.88,294.85 L658.34,294.13 L659.80,293.42 L661.26,292.71 L662.72,291.99 L664.18,291.28 L665.64,290.56 L667.10,289.85 L668.56,289.13 L670.02,288.42 L671.48,287.70 L672.94,286.99 L674.40,286.27 L675.86,285.56 L677.32,284.84 L678.78,284.13 L680.24,283.41 L681.70,282.69 L683.16,281.98 L684.62,281.26 L686.08,280.55 L687.54,279.83 L689.00,279.11 L690.46,278.40 L691.92,277.68 L693.38,276.96 L694.84,276.25 L696.30,275.53 L697.76,274.81 L699.22,274.09 L700.68,273.38 L702.14,272.66 L703.60,271.94 L705.06,271.22 L706.52,270.51 L707.98,269.79 L709.44,269.07 L710.90,268.35 L712.36,267.63 L713.82,266.91 L715.28,266.20 L716.74,265.48 L718.20,264.76 L719.66,264.04 L721.12,263.32 L722.58,262.60 L724.04,261.88 L725.50,261.16 L726.96,260.44 L728.42,259.72 L729.88,259.00 L731.34,258.28 L732.80,257.56 L734.26,256.84 L735.72,256.12 L737.18,255.40 L738.64,254.68 L740.10,253.96 L741.56,253.24 L743.02,252.52 L744.48,251.80 L745.94,251.08 L747.40,250.36 L748.86,249.64 L750.32,248.92 L751.78,248.20 L753.24,247.48 L754.70,246.75 L756.16,246.03 L757.62,245.31 L759.08,244.59 L760.54,243.87 L762.00,243.15 L763.46,242.42 L764.92,241.70 L766.38,240.98 L767.84,240.26 L769.30,239.53 L770.76,238.81 L772.22,238.09 L773.68,237.37 L775.14,236.64 L776.60,235.92 L778.06,235.20 L779.52,234.48 L780.98,233.75 L782.44,233.03 L783.90,232.31 L785.36,231.58 L786.82,230.86 L788.28,230.14 L789.74,229.41 L791.20,228.69 L792.66,227.97 L794.12,227.24 L795.58,226.52 L797.04,225.79 L798.50,225.07 L799.96,224.35 L801.42,223.62 L802.88,222.90 L804.34,222.17 L805.80,221.45 L807.26,220.72 L808.72,220.00 L810.18,219.27 L811.64,218.55 L813.10,217.82 L814.56,217.10 L816.02,216.37 L817.48,215.65 L818.94,214.92 L820.40,214.20 L821.86,213.47 L823.32,212.75 L824.78,212.02 L826.24,211.30 L827.70,210.57 L829.16,209.84 L830.62,209.12 L832.08,208.39 L833.54,207.67 L835.00,206.94 " fill="none" stroke="#dc2626" stroke-width="3" stroke-dasharray="14 7"/><line x1="863" y1="160" x2="893" y2="160" stroke="#dc2626" stroke-width="3" stroke-dasharray="14 7"/><text x="903" y="165" font-size="14" fill="#111827">large exp(x)/sqrt(2 pi x)</text><text x="470" y="610" text-anchor="middle" font-size="16" fill="#4b5563">The exact solution starts quadratically, then approaches exponential-like growth in the large-argument limit.</text></svg>