<svg xmlns="http://www.w3.org/2000/svg" width="880" height="640" viewBox="0 0 880 640"><rect width="100%" height="100%" fill="white"/>
  <rect x="105" y="70" width="620" height="440" fill="none" stroke="#1f2937" stroke-width="1.2"/>
  <text x="415" y="556" text-anchor="middle" font-size="18" fill="#111827">zeta (ps)</text>
  <text transform="translate(50,290) rotate(-90)" text-anchor="middle" font-size="18" fill="#111827">tau (ps)</text>
  <text x="415" y="36" text-anchor="middle" font-size="20" font-weight="600" fill="#111827">Iso-gain curves: gain is mainly set by zeta tau</text><line x1="105" y1="510" x2="105" y2="516" stroke="#111827"/><text x="105" y="534" text-anchor="middle" font-size="13" fill="#374151">0.00</text><line x1="99" y1="510" x2="105" y2="510" stroke="#111827"/><text x="93" y="514" text-anchor="end" font-size="13" fill="#374151">0.00</text><line x1="229" y1="510" x2="229" y2="516" stroke="#111827"/><text x="229" y="534" text-anchor="middle" font-size="13" fill="#374151">0.05</text><line x1="99" y1="422" x2="105" y2="422" stroke="#111827"/><text x="93" y="426" text-anchor="end" font-size="13" fill="#374151">0.05</text><line x1="229" y1="70" x2="229" y2="510" stroke="#e5e7eb"/><line x1="105" y1="422" x2="725" y2="422" stroke="#e5e7eb"/><line x1="353" y1="510" x2="353" y2="516" stroke="#111827"/><text x="353" y="534" text-anchor="middle" font-size="13" fill="#374151">0.10</text><line x1="99" y1="334" x2="105" y2="334" stroke="#111827"/><text x="93" y="338" text-anchor="end" font-size="13" fill="#374151">0.10</text><line x1="353" y1="70" x2="353" y2="510" stroke="#e5e7eb"/><line x1="105" y1="334" x2="725" y2="334" stroke="#e5e7eb"/><line x1="477" y1="510" x2="477" y2="516" stroke="#111827"/><text x="477" y="534" text-anchor="middle" font-size="13" fill="#374151">0.15</text><line x1="99" y1="246" x2="105" y2="246" stroke="#111827"/><text x="93" y="250" text-anchor="end" font-size="13" fill="#374151">0.15</text><line x1="477" y1="70" x2="477" y2="510" stroke="#e5e7eb"/><line x1="105" y1="246" x2="725" y2="246" stroke="#e5e7eb"/><line x1="601" y1="510" x2="601" y2="516" stroke="#111827"/><text x="601" y="534" text-anchor="middle" font-size="13" fill="#374151">0.20</text><line x1="99" y1="158" x2="105" y2="158" stroke="#111827"/><text x="93" y="162" text-anchor="end" font-size="13" fill="#374151">0.20</text><line x1="601" y1="70" x2="601" y2="510" stroke="#e5e7eb"/><line x1="105" y1="158" x2="725" y2="158" stroke="#e5e7eb"/><line x1="725" y1="510" x2="725" y2="516" stroke="#111827"/><text x="725" y="534" text-anchor="middle" font-size="13" fill="#374151">0.25</text><line x1="99" y1="70" x2="105" y2="70" stroke="#111827"/><text x="93" y="74" text-anchor="end" font-size="13" fill="#374151">0.25</text><path d="M140.96,81.44 L142.20,95.72 L143.44,109.09 L144.68,121.62 L145.92,133.39 L147.16,144.46 L148.40,154.91 L149.64,164.77 L150.88,174.10 L152.12,182.94 L153.36,191.33 L154.60,199.29 L155.84,206.87 L157.08,214.09 L158.32,220.97 L159.56,227.54 L160.80,233.82 L162.04,239.82 L163.28,245.57 L164.52,251.08 L165.76,256.36 L167.00,261.43 L168.24,266.31 L169.48,270.99 L170.72,275.50 L171.96,279.85 L173.20,284.03 L174.44,288.07 L175.68,291.96 L176.92,295.72 L178.16,299.35 L179.40,302.86 L180.64,306.26 L181.88,309.54 L183.12,312.73 L184.36,315.81 L185.60,318.80 L186.84,321.69 L188.08,324.50 L189.32,327.23 L190.56,329.88 L191.80,332.45 L193.04,334.95 L194.28,337.39 L195.52,339.75 L196.76,342.05 L198.00,344.29 L199.24,346.47 L200.48,348.59 L201.72,350.66 L202.96,352.68 L204.20,354.65 L205.44,356.56 L206.68,358.44 L207.92,360.26 L209.16,362.04 L210.40,363.79 L211.64,365.49 L212.88,367.15 L214.12,368.77 L215.36,370.36 L216.60,371.91 L217.84,373.43 L219.08,374.91 L220.32,376.36 L221.56,377.78 L222.80,379.18 L224.04,380.54 L225.28,381.87 L226.52,383.18 L227.76,384.46 L229.00,385.72 L230.24,386.95 L231.48,388.15 L232.72,389.34 L233.96,390.50 L235.20,391.64 L236.44,392.75 L237.68,393.85 L238.92,394.92 L240.16,395.98 L241.40,397.02 L242.64,398.03 L243.88,399.03 L245.12,400.02 L246.36,400.98 L247.60,401.93 L248.84,402.86 L250.08,403.78 L251.32,404.68 L252.56,405.56 L253.80,406.43 L255.04,407.29 L256.28,408.13 L257.52,408.96 L258.76,409.77 L260.00,410.57 L261.24,411.36 L262.48,412.14 L263.72,412.90 L264.96,413.66 L266.20,414.40 L267.44,415.13 L268.68,415.85 L269.92,416.55 L271.16,417.25 L272.40,417.94 L273.64,418.62 L274.88,419.28 L276.12,419.94 L277.36,420.59 L278.60,421.23 L279.84,421.86 L281.08,422.48 L282.32,423.09 L283.56,423.69 L284.80,424.29 L286.04,424.87 L287.28,425.45 L288.52,426.03 L289.76,426.59 L291.00,427.14 L292.24,427.69 L293.48,428.24 L294.72,428.77 L295.96,429.30 L297.20,429.82 L298.44,430.33 L299.68,430.84 L300.92,431.34 L302.16,431.83 L303.40,432.32 L304.64,432.81 L305.88,433.28 L307.12,433.75 L308.36,434.22 L309.60,434.68 L310.84,435.13 L312.08,435.58 L313.32,436.02 L314.56,436.46 L315.80,436.89 L317.04,437.32 L318.28,437.74 L319.52,438.16 L320.76,438.57 L322.00,438.98 L323.24,439.38 L324.48,439.78 L325.72,440.18 L326.96,440.57 L328.20,440.95 L329.44,441.34 L330.68,441.71 L331.92,442.09 L333.16,442.46 L334.40,442.82 L335.64,443.18 L336.88,443.54 L338.12,443.89 L339.36,444.24 L340.60,444.59 L341.84,444.93 L343.08,445.27 L344.32,445.60 L345.56,445.94 L346.80,446.27 L348.04,446.59 L349.28,446.91 L350.52,447.23 L351.76,447.55 L353.00,447.86 L354.24,448.17 L355.48,448.47 L356.72,448.78 L357.96,449.08 L359.20,449.37 L360.44,449.67 L361.68,449.96 L362.92,450.25 L364.16,450.53 L365.40,450.82 L366.64,451.10 L367.88,451.38 L369.12,451.65 L370.36,451.92 L371.60,452.19 L372.84,452.46 L374.08,452.73 L375.32,452.99 L376.56,453.25 L377.80,453.51 L379.04,453.76 L380.28,454.02 L381.52,454.27 L382.76,454.52 L384.00,454.76 L385.24,455.01 L386.48,455.25 L387.72,455.49 L388.96,455.73 L390.20,455.96 L391.44,456.20 L392.68,456.43 L393.92,456.66 L395.16,456.89 L396.40,457.11 L397.64,457.34 L398.88,457.56 L400.12,457.78 L401.36,458.00 L402.60,458.22 L403.84,458.43 L405.08,458.64 L406.32,458.85 L407.56,459.06 L408.80,459.27 L410.04,459.48 L411.28,459.68 L412.52,459.89 L413.76,460.09 L415.00,460.29 L416.24,460.48 L417.48,460.68 L418.72,460.88 L419.96,461.07 L421.20,461.26 L422.44,461.45 L423.68,461.64 L424.92,461.83 L426.16,462.01 L427.40,462.20 L428.64,462.38 L429.88,462.56 L431.12,462.74 L432.36,462.92 L433.60,463.10 L434.84,463.28 L436.08,463.45 L437.32,463.63 L438.56,463.80 L439.80,463.97 L441.04,464.14 L442.28,464.31 L443.52,464.48 L444.76,464.64 L446.00,464.81 L447.24,464.97 L448.48,465.13 L449.72,465.29 L450.96,465.45 L452.20,465.61 L453.44,465.77 L454.68,465.93 L455.92,466.08 L457.16,466.24 L458.40,466.39 L459.64,466.54 L460.88,466.70 L462.12,466.85 L463.36,467.00 L464.60,467.14 L465.84,467.29 L467.08,467.44 L468.32,467.58 L469.56,467.73 L470.80,467.87 L472.04,468.01 L473.28,468.15 L474.52,468.29 L475.76,468.43 L477.00,468.57 L478.24,468.71 L479.48,468.85 L480.72,468.98 L481.96,469.12 L483.20,469.25 L484.44,469.38 L485.68,469.52 L486.92,469.65 L488.16,469.78 L489.40,469.91 L490.64,470.04 L491.88,470.17 L493.12,470.29 L494.36,470.42 L495.60,470.55 L496.84,470.67 L498.08,470.79 L499.32,470.92 L500.56,471.04 L501.80,471.16 L503.04,471.28 L504.28,471.40 L505.52,471.52 L506.76,471.64 L508.00,471.76 L509.24,471.88 L510.48,471.99 L511.72,472.11 L512.96,472.22 L514.20,472.34 L515.44,472.45 L516.68,472.57 L517.92,472.68 L519.16,472.79 L520.40,472.90 L521.64,473.01 L522.88,473.12 L524.12,473.23 L525.36,473.34 L526.60,473.45 L527.84,473.55 L529.08,473.66 L530.32,473.77 L531.56,473.87 L532.80,473.98 L534.04,474.08 L535.28,474.18 L536.52,474.29 L537.76,474.39 L539.00,474.49 L540.24,474.59 L541.48,474.69 L542.72,474.79 L543.96,474.89 L545.20,474.99 L546.44,475.09 L547.68,475.19 L548.92,475.28 L550.16,475.38 L551.40,475.48 L552.64,475.57 L553.88,475.67 L555.12,475.76 L556.36,475.86 L557.60,475.95 L558.84,476.04 L560.08,476.14 L561.32,476.23 L562.56,476.32 L563.80,476.41 L565.04,476.50 L566.28,476.59 L567.52,476.68 L568.76,476.77 L570.00,476.86 L571.24,476.95 L572.48,477.03 L573.72,477.12 L574.96,477.21 L576.20,477.29 L577.44,477.38 L578.68,477.47 L579.92,477.55 L581.16,477.63 L582.40,477.72 L583.64,477.80 L584.88,477.89 L586.12,477.97 L587.36,478.05 L588.60,478.13 L589.84,478.21 L591.08,478.30 L592.32,478.38 L593.56,478.46 L594.80,478.54 L596.04,478.62 L597.28,478.69 L598.52,478.77 L599.76,478.85 L601.00,478.93 L602.24,479.01 L603.48,479.08 L604.72,479.16 L605.96,479.24 L607.20,479.31 L608.44,479.39 L609.68,479.46 L610.92,479.54 L612.16,479.61 L613.40,479.69 L614.64,479.76 L615.88,479.83 L617.12,479.91 L618.36,479.98 L619.60,480.05 L620.84,480.12 L622.08,480.20 L623.32,480.27 L624.56,480.34 L625.80,480.41 L627.04,480.48 L628.28,480.55 L629.52,480.62 L630.76,480.69 L632.00,480.76 L633.24,480.83 L634.48,480.89 L635.72,480.96 L636.96,481.03 L638.20,481.10 L639.44,481.16 L640.68,481.23 L641.92,481.30 L643.16,481.36 L644.40,481.43 L645.64,481.49 L646.88,481.56 L648.12,481.62 L649.36,481.69 L650.60,481.75 L651.84,481.82 L653.08,481.88 L654.32,481.95 L655.56,482.01 L656.80,482.07 L658.04,482.13 L659.28,482.20 L660.52,482.26 L661.76,482.32 L663.00,482.38 L664.24,482.44 L665.48,482.50 L666.72,482.56 L667.96,482.62 L669.20,482.69 L670.44,482.75 L671.68,482.80 L672.92,482.86 L674.16,482.92 L675.40,482.98 L676.64,483.04 L677.88,483.10 L679.12,483.16 L680.36,483.21 L681.60,483.27 L682.84,483.33 L684.08,483.39 L685.32,483.44 L686.56,483.50 L687.80,483.56 L689.04,483.61 L690.28,483.67 L691.52,483.72 L692.76,483.78 L694.00,483.84 L695.24,483.89 L696.48,483.94 L697.72,484.00 L698.96,484.05 L700.20,484.11 L701.44,484.16 L702.68,484.22 L703.92,484.27 L705.16,484.32 L706.40,484.37 L707.64,484.43 L708.88,484.48 L710.12,484.53 L711.36,484.58 L712.60,484.64 L713.84,484.69 L715.08,484.74 L716.32,484.79 L717.56,484.84 L718.80,484.89 L720.04,484.94 L721.28,484.99 L722.52,485.04 L723.76,485.09 L725.00,485.14 " fill="none" stroke="#2563eb" stroke-width="3"/><line x1="753" y1="100" x2="783" y2="100" stroke="#2563eb" stroke-width="3"/><text x="793" y="105" font-size="14">G=10^1</text><path d="M193.04,75.32 L194.28,81.36 L195.52,87.23 L196.76,92.94 L198.00,98.50 L199.24,103.92 L200.48,109.19 L201.72,114.33 L202.96,119.34 L204.20,124.22 L205.44,128.98 L206.68,133.63 L207.92,138.16 L209.16,142.59 L210.40,146.91 L211.64,151.14 L212.88,155.26 L214.12,159.29 L215.36,163.23 L216.60,167.08 L217.84,170.85 L219.08,174.54 L220.32,178.15 L221.56,181.68 L222.80,185.13 L224.04,188.52 L225.28,191.83 L226.52,195.08 L227.76,198.26 L229.00,201.38 L230.24,204.43 L231.48,207.43 L232.72,210.37 L233.96,213.25 L235.20,216.07 L236.44,218.85 L237.68,221.57 L238.92,224.24 L240.16,226.86 L241.40,229.43 L242.64,231.96 L243.88,234.44 L245.12,236.88 L246.36,239.28 L247.60,241.63 L248.84,243.95 L250.08,246.22 L251.32,248.45 L252.56,250.65 L253.80,252.81 L255.04,254.94 L256.28,257.03 L257.52,259.09 L258.76,261.11 L260.00,263.10 L261.24,265.06 L262.48,266.99 L263.72,268.89 L264.96,270.76 L266.20,272.60 L267.44,274.41 L268.68,276.19 L269.92,277.95 L271.16,279.68 L272.40,281.39 L273.64,283.07 L274.88,284.73 L276.12,286.36 L277.36,287.97 L278.60,289.55 L279.84,291.12 L281.08,292.66 L282.32,294.18 L283.56,295.68 L284.80,297.16 L286.04,298.61 L287.28,300.05 L288.52,301.47 L289.76,302.87 L291.00,304.25 L292.24,305.61 L293.48,306.96 L294.72,308.29 L295.96,309.60 L297.20,310.89 L298.44,312.16 L299.68,313.42 L300.92,314.67 L302.16,315.90 L303.40,317.11 L304.64,318.31 L305.88,319.49 L307.12,320.66 L308.36,321.81 L309.60,322.96 L310.84,324.08 L312.08,325.20 L313.32,326.30 L314.56,327.38 L315.80,328.46 L317.04,329.52 L318.28,330.57 L319.52,331.60 L320.76,332.63 L322.00,333.64 L323.24,334.65 L324.48,335.64 L325.72,336.62 L326.96,337.58 L328.20,338.54 L329.44,339.49 L330.68,340.43 L331.92,341.35 L333.16,342.27 L334.40,343.18 L335.64,344.07 L336.88,344.96 L338.12,345.84 L339.36,346.71 L340.60,347.57 L341.84,348.42 L343.08,349.26 L344.32,350.09 L345.56,350.92 L346.80,351.73 L348.04,352.54 L349.28,353.34 L350.52,354.13 L351.76,354.91 L353.00,355.69 L354.24,356.46 L355.48,357.22 L356.72,357.97 L357.96,358.71 L359.20,359.45 L360.44,360.18 L361.68,360.91 L362.92,361.62 L364.16,362.33 L365.40,363.04 L366.64,363.73 L367.88,364.42 L369.12,365.11 L370.36,365.78 L371.60,366.45 L372.84,367.12 L374.08,367.78 L375.32,368.43 L376.56,369.08 L377.80,369.72 L379.04,370.35 L380.28,370.98 L381.52,371.60 L382.76,372.22 L384.00,372.83 L385.24,373.44 L386.48,374.04 L387.72,374.64 L388.96,375.23 L390.20,375.82 L391.44,376.40 L392.68,376.97 L393.92,377.54 L395.16,378.11 L396.40,378.67 L397.64,379.23 L398.88,379.78 L400.12,380.33 L401.36,380.87 L402.60,381.41 L403.84,381.94 L405.08,382.47 L406.32,382.99 L407.56,383.51 L408.80,384.03 L410.04,384.54 L411.28,385.05 L412.52,385.56 L413.76,386.05 L415.00,386.55 L416.24,387.04 L417.48,387.53 L418.72,388.01 L419.96,388.49 L421.20,388.97 L422.44,389.44 L423.68,389.91 L424.92,390.38 L426.16,390.84 L427.40,391.30 L428.64,391.75 L429.88,392.20 L431.12,392.65 L432.36,393.10 L433.60,393.54 L434.84,393.98 L436.08,394.41 L437.32,394.84 L438.56,395.27 L439.80,395.69 L441.04,396.12 L442.28,396.54 L443.52,396.95 L444.76,397.36 L446.00,397.77 L447.24,398.18 L448.48,398.58 L449.72,398.98 L450.96,399.38 L452.20,399.78 L453.44,400.17 L454.68,400.56 L455.92,400.95 L457.16,401.33 L458.40,401.71 L459.64,402.09 L460.88,402.47 L462.12,402.84 L463.36,403.21 L464.60,403.58 L465.84,403.94 L467.08,404.31 L468.32,404.67 L469.56,405.03 L470.80,405.38 L472.04,405.74 L473.28,406.09 L474.52,406.44 L475.76,406.78 L477.00,407.13 L478.24,407.47 L479.48,407.81 L480.72,408.14 L481.96,408.48 L483.20,408.81 L484.44,409.14 L485.68,409.47 L486.92,409.80 L488.16,410.12 L489.40,410.44 L490.64,410.76 L491.88,411.08 L493.12,411.40 L494.36,411.71 L495.60,412.02 L496.84,412.33 L498.08,412.64 L499.32,412.95 L500.56,413.25 L501.80,413.56 L503.04,413.86 L504.28,414.15 L505.52,414.45 L506.76,414.75 L508.00,415.04 L509.24,415.33 L510.48,415.62 L511.72,415.91 L512.96,416.19 L514.20,416.48 L515.44,416.76 L516.68,417.04 L517.92,417.32 L519.16,417.60 L520.40,417.87 L521.64,418.15 L522.88,418.42 L524.12,418.69 L525.36,418.96 L526.60,419.23 L527.84,419.49 L529.08,419.76 L530.32,420.02 L531.56,420.28 L532.80,420.54 L534.04,420.80 L535.28,421.06 L536.52,421.32 L537.76,421.57 L539.00,421.82 L540.24,422.07 L541.48,422.32 L542.72,422.57 L543.96,422.82 L545.20,423.06 L546.44,423.31 L547.68,423.55 L548.92,423.79 L550.16,424.03 L551.40,424.27 L552.64,424.51 L553.88,424.74 L555.12,424.98 L556.36,425.21 L557.60,425.45 L558.84,425.68 L560.08,425.91 L561.32,426.13 L562.56,426.36 L563.80,426.59 L565.04,426.81 L566.28,427.04 L567.52,427.26 L568.76,427.48 L570.00,427.70 L571.24,427.92 L572.48,428.14 L573.72,428.35 L574.96,428.57 L576.20,428.78 L577.44,429.00 L578.68,429.21 L579.92,429.42 L581.16,429.63 L582.40,429.84 L583.64,430.05 L584.88,430.25 L586.12,430.46 L587.36,430.66 L588.60,430.87 L589.84,431.07 L591.08,431.27 L592.32,431.47 L593.56,431.67 L594.80,431.87 L596.04,432.06 L597.28,432.26 L598.52,432.46 L599.76,432.65 L601.00,432.84 L602.24,433.04 L603.48,433.23 L604.72,433.42 L605.96,433.61 L607.20,433.80 L608.44,433.98 L609.68,434.17 L610.92,434.36 L612.16,434.54 L613.40,434.73 L614.64,434.91 L615.88,435.09 L617.12,435.27 L618.36,435.45 L619.60,435.63 L620.84,435.81 L622.08,435.99 L623.32,436.17 L624.56,436.34 L625.80,436.52 L627.04,436.69 L628.28,436.87 L629.52,437.04 L630.76,437.21 L632.00,437.38 L633.24,437.55 L634.48,437.72 L635.72,437.89 L636.96,438.06 L638.20,438.23 L639.44,438.39 L640.68,438.56 L641.92,438.72 L643.16,438.89 L644.40,439.05 L645.64,439.21 L646.88,439.38 L648.12,439.54 L649.36,439.70 L650.60,439.86 L651.84,440.02 L653.08,440.18 L654.32,440.33 L655.56,440.49 L656.80,440.65 L658.04,440.80 L659.28,440.96 L660.52,441.11 L661.76,441.26 L663.00,441.42 L664.24,441.57 L665.48,441.72 L666.72,441.87 L667.96,442.02 L669.20,442.17 L670.44,442.32 L671.68,442.47 L672.92,442.61 L674.16,442.76 L675.40,442.91 L676.64,443.05 L677.88,443.20 L679.12,443.34 L680.36,443.49 L681.60,443.63 L682.84,443.77 L684.08,443.91 L685.32,444.05 L686.56,444.20 L687.80,444.34 L689.04,444.47 L690.28,444.61 L691.52,444.75 L692.76,444.89 L694.00,445.03 L695.24,445.16 L696.48,445.30 L697.72,445.43 L698.96,445.57 L700.20,445.70 L701.44,445.84 L702.68,445.97 L703.92,446.10 L705.16,446.23 L706.40,446.37 L707.64,446.50 L708.88,446.63 L710.12,446.76 L711.36,446.89 L712.60,447.02 L713.84,447.14 L715.08,447.27 L716.32,447.40 L717.56,447.53 L718.80,447.65 L720.04,447.78 L721.28,447.90 L722.52,448.03 L723.76,448.15 L725.00,448.28 " fill="none" stroke="#059669" stroke-width="3"/><line x1="753" y1="130" x2="783" y2="130" stroke="#059669" stroke-width="3"/><text x="793" y="135" font-size="14">G=10^2</text><path d="M261.24,70.67 L262.48,74.12 L263.72,77.53 L264.96,80.88 L266.20,84.18 L267.44,87.43 L268.68,90.63 L269.92,93.79 L271.16,96.89 L272.40,99.95 L273.64,102.97 L274.88,105.94 L276.12,108.87 L277.36,111.75 L278.60,114.60 L279.84,117.40 L281.08,120.17 L282.32,122.89 L283.56,125.58 L284.80,128.23 L286.04,130.85 L287.28,133.43 L288.52,135.97 L289.76,138.48 L291.00,140.96 L292.24,143.40 L293.48,145.81 L294.72,148.19 L295.96,150.54 L297.20,152.86 L298.44,155.15 L299.68,157.41 L300.92,159.64 L302.16,161.85 L303.40,164.02 L304.64,166.17 L305.88,168.30 L307.12,170.39 L308.36,172.46 L309.60,174.51 L310.84,176.53 L312.08,178.53 L313.32,180.50 L314.56,182.45 L315.80,184.38 L317.04,186.28 L318.28,188.16 L319.52,190.02 L320.76,191.86 L322.00,193.68 L323.24,195.48 L324.48,197.25 L325.72,199.01 L326.96,200.75 L328.20,202.47 L329.44,204.16 L330.68,205.85 L331.92,207.51 L333.16,209.15 L334.40,210.78 L335.64,212.39 L336.88,213.98 L338.12,215.55 L339.36,217.11 L340.60,218.65 L341.84,220.18 L343.08,221.69 L344.32,223.18 L345.56,224.66 L346.80,226.12 L348.04,227.57 L349.28,229.00 L350.52,230.42 L351.76,231.83 L353.00,233.22 L354.24,234.60 L355.48,235.96 L356.72,237.31 L357.96,238.65 L359.20,239.97 L360.44,241.28 L361.68,242.58 L362.92,243.86 L364.16,245.14 L365.40,246.40 L366.64,247.65 L367.88,248.89 L369.12,250.11 L370.36,251.33 L371.60,252.53 L372.84,253.72 L374.08,254.90 L375.32,256.07 L376.56,257.23 L377.80,258.38 L379.04,259.52 L380.28,260.65 L381.52,261.77 L382.76,262.87 L384.00,263.97 L385.24,265.06 L386.48,266.14 L387.72,267.21 L388.96,268.27 L390.20,269.32 L391.44,270.36 L392.68,271.40 L393.92,272.42 L395.16,273.44 L396.40,274.44 L397.64,275.44 L398.88,276.43 L400.12,277.41 L401.36,278.38 L402.60,279.35 L403.84,280.31 L405.08,281.26 L406.32,282.20 L407.56,283.13 L408.80,284.06 L410.04,284.97 L411.28,285.89 L412.52,286.79 L413.76,287.69 L415.00,288.58 L416.24,289.46 L417.48,290.33 L418.72,291.20 L419.96,292.06 L421.20,292.92 L422.44,293.76 L423.68,294.61 L424.92,295.44 L426.16,296.27 L427.40,297.09 L428.64,297.91 L429.88,298.72 L431.12,299.52 L432.36,300.32 L433.60,301.11 L434.84,301.89 L436.08,302.67 L437.32,303.45 L438.56,304.21 L439.80,304.98 L441.04,305.73 L442.28,306.48 L443.52,307.23 L444.76,307.97 L446.00,308.70 L447.24,309.43 L448.48,310.16 L449.72,310.88 L450.96,311.59 L452.20,312.30 L453.44,313.00 L454.68,313.70 L455.92,314.40 L457.16,315.08 L458.40,315.77 L459.64,316.45 L460.88,317.12 L462.12,317.79 L463.36,318.46 L464.60,319.12 L465.84,319.77 L467.08,320.42 L468.32,321.07 L469.56,321.71 L470.80,322.35 L472.04,322.99 L473.28,323.62 L474.52,324.24 L475.76,324.86 L477.00,325.48 L478.24,326.09 L479.48,326.70 L480.72,327.31 L481.96,327.91 L483.20,328.50 L484.44,329.10 L485.68,329.69 L486.92,330.27 L488.16,330.85 L489.40,331.43 L490.64,332.01 L491.88,332.58 L493.12,333.14 L494.36,333.71 L495.60,334.27 L496.84,334.82 L498.08,335.37 L499.32,335.92 L500.56,336.47 L501.80,337.01 L503.04,337.55 L504.28,338.09 L505.52,338.62 L506.76,339.15 L508.00,339.67 L509.24,340.20 L510.48,340.72 L511.72,341.23 L512.96,341.74 L514.20,342.25 L515.44,342.76 L516.68,343.26 L517.92,343.77 L519.16,344.26 L520.40,344.76 L521.64,345.25 L522.88,345.74 L524.12,346.22 L525.36,346.71 L526.60,347.19 L527.84,347.67 L529.08,348.14 L530.32,348.61 L531.56,349.08 L532.80,349.55 L534.04,350.01 L535.28,350.47 L536.52,350.93 L537.76,351.39 L539.00,351.84 L540.24,352.29 L541.48,352.74 L542.72,353.18 L543.96,353.63 L545.20,354.07 L546.44,354.51 L547.68,354.94 L548.92,355.37 L550.16,355.80 L551.40,356.23 L552.64,356.66 L553.88,357.08 L555.12,357.50 L556.36,357.92 L557.60,358.34 L558.84,358.75 L560.08,359.17 L561.32,359.58 L562.56,359.98 L563.80,360.39 L565.04,360.79 L566.28,361.19 L567.52,361.59 L568.76,361.99 L570.00,362.38 L571.24,362.78 L572.48,363.17 L573.72,363.56 L574.96,363.94 L576.20,364.33 L577.44,364.71 L578.68,365.09 L579.92,365.47 L581.16,365.84 L582.40,366.22 L583.64,366.59 L584.88,366.96 L586.12,367.33 L587.36,367.70 L588.60,368.06 L589.84,368.42 L591.08,368.79 L592.32,369.14 L593.56,369.50 L594.80,369.86 L596.04,370.21 L597.28,370.56 L598.52,370.91 L599.76,371.26 L601.00,371.61 L602.24,371.95 L603.48,372.30 L604.72,372.64 L605.96,372.98 L607.20,373.32 L608.44,373.65 L609.68,373.99 L610.92,374.32 L612.16,374.65 L613.40,374.98 L614.64,375.31 L615.88,375.64 L617.12,375.97 L618.36,376.29 L619.60,376.61 L620.84,376.93 L622.08,377.25 L623.32,377.57 L624.56,377.88 L625.80,378.20 L627.04,378.51 L628.28,378.82 L629.52,379.13 L630.76,379.44 L632.00,379.75 L633.24,380.06 L634.48,380.36 L635.72,380.66 L636.96,380.96 L638.20,381.26 L639.44,381.56 L640.68,381.86 L641.92,382.16 L643.16,382.45 L644.40,382.74 L645.64,383.04 L646.88,383.33 L648.12,383.62 L649.36,383.90 L650.60,384.19 L651.84,384.48 L653.08,384.76 L654.32,385.04 L655.56,385.32 L656.80,385.60 L658.04,385.88 L659.28,386.16 L660.52,386.44 L661.76,386.71 L663.00,386.99 L664.24,387.26 L665.48,387.53 L666.72,387.80 L667.96,388.07 L669.20,388.34 L670.44,388.60 L671.68,388.87 L672.92,389.13 L674.16,389.40 L675.40,389.66 L676.64,389.92 L677.88,390.18 L679.12,390.44 L680.36,390.70 L681.60,390.95 L682.84,391.21 L684.08,391.46 L685.32,391.72 L686.56,391.97 L687.80,392.22 L689.04,392.47 L690.28,392.72 L691.52,392.97 L692.76,393.21 L694.00,393.46 L695.24,393.71 L696.48,393.95 L697.72,394.19 L698.96,394.43 L700.20,394.67 L701.44,394.91 L702.68,395.15 L703.92,395.39 L705.16,395.63 L706.40,395.86 L707.64,396.10 L708.88,396.33 L710.12,396.57 L711.36,396.80 L712.60,397.03 L713.84,397.26 L715.08,397.49 L716.32,397.72 L717.56,397.94 L718.80,398.17 L720.04,398.39 L721.28,398.62 L722.52,398.84 L723.76,399.07 L725.00,399.29 " fill="none" stroke="#d97706" stroke-width="3"/><line x1="753" y1="160" x2="783" y2="160" stroke="#d97706" stroke-width="3"/><text x="793" y="165" font-size="14">G=10^3</text><path d="M348.04,72.07 L349.28,74.30 L350.52,76.50 L351.76,78.68 L353.00,80.83 L354.24,82.97 L355.48,85.08 L356.72,87.18 L357.96,89.25 L359.20,91.30 L360.44,93.33 L361.68,95.35 L362.92,97.34 L364.16,99.31 L365.40,101.27 L366.64,103.21 L367.88,105.13 L369.12,107.03 L370.36,108.91 L371.60,110.78 L372.84,112.62 L374.08,114.45 L375.32,116.27 L376.56,118.07 L377.80,119.85 L379.04,121.61 L380.28,123.36 L381.52,125.10 L382.76,126.82 L384.00,128.52 L385.24,130.21 L386.48,131.88 L387.72,133.54 L388.96,135.18 L390.20,136.81 L391.44,138.43 L392.68,140.03 L393.92,141.62 L395.16,143.19 L396.40,144.75 L397.64,146.30 L398.88,147.83 L400.12,149.36 L401.36,150.86 L402.60,152.36 L403.84,153.85 L405.08,155.32 L406.32,156.78 L407.56,158.22 L408.80,159.66 L410.04,161.08 L411.28,162.50 L412.52,163.90 L413.76,165.29 L415.00,166.67 L416.24,168.03 L417.48,169.39 L418.72,170.74 L419.96,172.07 L421.20,173.40 L422.44,174.71 L423.68,176.02 L424.92,177.31 L426.16,178.60 L427.40,179.87 L428.64,181.14 L429.88,182.39 L431.12,183.64 L432.36,184.87 L433.60,186.10 L434.84,187.32 L436.08,188.53 L437.32,189.73 L438.56,190.92 L439.80,192.10 L441.04,193.27 L442.28,194.44 L443.52,195.59 L444.76,196.74 L446.00,197.88 L447.24,199.01 L448.48,200.13 L449.72,201.25 L450.96,202.35 L452.20,203.45 L453.44,204.54 L454.68,205.63 L455.92,206.70 L457.16,207.77 L458.40,208.83 L459.64,209.88 L460.88,210.93 L462.12,211.97 L463.36,213.00 L464.60,214.02 L465.84,215.04 L467.08,216.05 L468.32,217.05 L469.56,218.05 L470.80,219.04 L472.04,220.02 L473.28,221.00 L474.52,221.97 L475.76,222.93 L477.00,223.89 L478.24,224.84 L479.48,225.78 L480.72,226.72 L481.96,227.65 L483.20,228.58 L484.44,229.50 L485.68,230.41 L486.92,231.32 L488.16,232.22 L489.40,233.12 L490.64,234.01 L491.88,234.89 L493.12,235.77 L494.36,236.65 L495.60,237.51 L496.84,238.38 L498.08,239.23 L499.32,240.08 L500.56,240.93 L501.80,241.77 L503.04,242.61 L504.28,243.44 L505.52,244.26 L506.76,245.08 L508.00,245.90 L509.24,246.71 L510.48,247.51 L511.72,248.31 L512.96,249.11 L514.20,249.90 L515.44,250.68 L516.68,251.47 L517.92,252.24 L519.16,253.01 L520.40,253.78 L521.64,254.54 L522.88,255.30 L524.12,256.06 L525.36,256.80 L526.60,257.55 L527.84,258.29 L529.08,259.03 L530.32,259.76 L531.56,260.48 L532.80,261.21 L534.04,261.93 L535.28,262.64 L536.52,263.35 L537.76,264.06 L539.00,264.76 L540.24,265.46 L541.48,266.16 L542.72,266.85 L543.96,267.53 L545.20,268.22 L546.44,268.90 L547.68,269.57 L548.92,270.24 L550.16,270.91 L551.40,271.57 L552.64,272.23 L553.88,272.89 L555.12,273.54 L556.36,274.19 L557.60,274.84 L558.84,275.48 L560.08,276.12 L561.32,276.76 L562.56,277.39 L563.80,278.02 L565.04,278.64 L566.28,279.27 L567.52,279.88 L568.76,280.50 L570.00,281.11 L571.24,281.72 L572.48,282.33 L573.72,282.93 L574.96,283.53 L576.20,284.12 L577.44,284.72 L578.68,285.31 L579.92,285.89 L581.16,286.48 L582.40,287.06 L583.64,287.63 L584.88,288.21 L586.12,288.78 L587.36,289.35 L588.60,289.91 L589.84,290.48 L591.08,291.04 L592.32,291.59 L593.56,292.15 L594.80,292.70 L596.04,293.25 L597.28,293.80 L598.52,294.34 L599.76,294.88 L601.00,295.42 L602.24,295.95 L603.48,296.48 L604.72,297.01 L605.96,297.54 L607.20,298.07 L608.44,298.59 L609.68,299.11 L610.92,299.62 L612.16,300.14 L613.40,300.65 L614.64,301.16 L615.88,301.67 L617.12,302.17 L618.36,302.67 L619.60,303.17 L620.84,303.67 L622.08,304.16 L623.32,304.66 L624.56,305.15 L625.80,305.63 L627.04,306.12 L628.28,306.60 L629.52,307.08 L630.76,307.56 L632.00,308.04 L633.24,308.51 L634.48,308.99 L635.72,309.45 L636.96,309.92 L638.20,310.39 L639.44,310.85 L640.68,311.31 L641.92,311.77 L643.16,312.23 L644.40,312.68 L645.64,313.13 L646.88,313.59 L648.12,314.03 L649.36,314.48 L650.60,314.92 L651.84,315.37 L653.08,315.81 L654.32,316.25 L655.56,316.68 L656.80,317.12 L658.04,317.55 L659.28,317.98 L660.52,318.41 L661.76,318.83 L663.00,319.26 L664.24,319.68 L665.48,320.10 L666.72,320.52 L667.96,320.94 L669.20,321.36 L670.44,321.77 L671.68,322.18 L672.92,322.59 L674.16,323.00 L675.40,323.41 L676.64,323.81 L677.88,324.21 L679.12,324.61 L680.36,325.01 L681.60,325.41 L682.84,325.81 L684.08,326.20 L685.32,326.60 L686.56,326.99 L687.80,327.38 L689.04,327.76 L690.28,328.15 L691.52,328.53 L692.76,328.92 L694.00,329.30 L695.24,329.68 L696.48,330.06 L697.72,330.43 L698.96,330.81 L700.20,331.18 L701.44,331.55 L702.68,331.92 L703.92,332.29 L705.16,332.66 L706.40,333.02 L707.64,333.39 L708.88,333.75 L710.12,334.11 L711.36,334.47 L712.60,334.83 L713.84,335.19 L715.08,335.54 L716.32,335.90 L717.56,336.25 L718.80,336.60 L720.04,336.95 L721.28,337.30 L722.52,337.64 L723.76,337.99 L725.00,338.33 " fill="none" stroke="#dc2626" stroke-width="3"/><line x1="753" y1="190" x2="783" y2="190" stroke="#dc2626" stroke-width="3"/><text x="793" y="195" font-size="14">G=10^4</text><path d="M449.72,70.37 L450.96,71.95 L452.20,73.51 L453.44,75.07 L454.68,76.61 L455.92,78.14 L457.16,79.66 L458.40,81.17 L459.64,82.67 L460.88,84.16 L462.12,85.64 L463.36,87.11 L464.60,88.56 L465.84,90.01 L467.08,91.45 L468.32,92.88 L469.56,94.30 L470.80,95.71 L472.04,97.11 L473.28,98.50 L474.52,99.88 L475.76,101.25 L477.00,102.61 L478.24,103.97 L479.48,105.31 L480.72,106.65 L481.96,107.97 L483.20,109.29 L484.44,110.60 L485.68,111.90 L486.92,113.19 L488.16,114.48 L489.40,115.75 L490.64,117.02 L491.88,118.28 L493.12,119.53 L494.36,120.78 L495.60,122.01 L496.84,123.24 L498.08,124.46 L499.32,125.67 L500.56,126.88 L501.80,128.07 L503.04,129.26 L504.28,130.45 L505.52,131.62 L506.76,132.79 L508.00,133.95 L509.24,135.10 L510.48,136.25 L511.72,137.39 L512.96,138.52 L514.20,139.65 L515.44,140.77 L516.68,141.88 L517.92,142.98 L519.16,144.08 L520.40,145.17 L521.64,146.26 L522.88,147.34 L524.12,148.41 L525.36,149.48 L526.60,150.54 L527.84,151.59 L529.08,152.64 L530.32,153.68 L531.56,154.72 L532.80,155.75 L534.04,156.77 L535.28,157.79 L536.52,158.80 L537.76,159.81 L539.00,160.81 L540.24,161.80 L541.48,162.79 L542.72,163.78 L543.96,164.76 L545.20,165.73 L546.44,166.70 L547.68,167.66 L548.92,168.61 L550.16,169.56 L551.40,170.51 L552.64,171.45 L553.88,172.39 L555.12,173.32 L556.36,174.24 L557.60,175.16 L558.84,176.08 L560.08,176.99 L561.32,177.89 L562.56,178.79 L563.80,179.69 L565.04,180.58 L566.28,181.46 L567.52,182.34 L568.76,183.22 L570.00,184.09 L571.24,184.96 L572.48,185.82 L573.72,186.68 L574.96,187.53 L576.20,188.38 L577.44,189.22 L578.68,190.06 L579.92,190.90 L581.16,191.73 L582.40,192.55 L583.64,193.38 L584.88,194.20 L586.12,195.01 L587.36,195.82 L588.60,196.62 L589.84,197.43 L591.08,198.22 L592.32,199.02 L593.56,199.81 L594.80,200.59 L596.04,201.37 L597.28,202.15 L598.52,202.92 L599.76,203.69 L601.00,204.46 L602.24,205.22 L603.48,205.98 L604.72,206.73 L605.96,207.48 L607.20,208.23 L608.44,208.97 L609.68,209.71 L610.92,210.45 L612.16,211.18 L613.40,211.91 L614.64,212.64 L615.88,213.36 L617.12,214.08 L618.36,214.79 L619.60,215.50 L620.84,216.21 L622.08,216.91 L623.32,217.62 L624.56,218.31 L625.80,219.01 L627.04,219.70 L628.28,220.39 L629.52,221.07 L630.76,221.75 L632.00,222.43 L633.24,223.11 L634.48,223.78 L635.72,224.45 L636.96,225.11 L638.20,225.78 L639.44,226.44 L640.68,227.09 L641.92,227.74 L643.16,228.40 L644.40,229.04 L645.64,229.69 L646.88,230.33 L648.12,230.97 L649.36,231.60 L650.60,232.24 L651.84,232.87 L653.08,233.49 L654.32,234.12 L655.56,234.74 L656.80,235.36 L658.04,235.97 L659.28,236.59 L660.52,237.20 L661.76,237.80 L663.00,238.41 L664.24,239.01 L665.48,239.61 L666.72,240.21 L667.96,240.80 L669.20,241.39 L670.44,241.98 L671.68,242.57 L672.92,243.15 L674.16,243.73 L675.40,244.31 L676.64,244.89 L677.88,245.46 L679.12,246.03 L680.36,246.60 L681.60,247.17 L682.84,247.73 L684.08,248.29 L685.32,248.85 L686.56,249.41 L687.80,249.96 L689.04,250.52 L690.28,251.07 L691.52,251.61 L692.76,252.16 L694.00,252.70 L695.24,253.24 L696.48,253.78 L697.72,254.32 L698.96,254.85 L700.20,255.38 L701.44,255.91 L702.68,256.44 L703.92,256.96 L705.16,257.49 L706.40,258.01 L707.64,258.53 L708.88,259.04 L710.12,259.56 L711.36,260.07 L712.60,260.58 L713.84,261.09 L715.08,261.59 L716.32,262.10 L717.56,262.60 L718.80,263.10 L720.04,263.60 L721.28,264.09 L722.52,264.59 L723.76,265.08 L725.00,265.57 " fill="none" stroke="#7c3aed" stroke-width="3"/><line x1="753" y1="220" x2="783" y2="220" stroke="#7c3aed" stroke-width="3"/><text x="793" y="225" font-size="14">G=10^5</text><text x="415" y="610" text-anchor="middle" font-size="16" fill="#4b5563">Since x=2g sqrt(zeta tau), constant gain follows approximately hyperbolas zeta tau = const.</text></svg>