<svg xmlns="http://www.w3.org/2000/svg" width="980" height="640" viewBox="0 0 980 640"><rect width="100%" height="100%" fill="white"/>
  <rect x="105" y="70" width="730" height="440" fill="none" stroke="#1f2937" stroke-width="1.2"/>
  <text x="470" y="556" text-anchor="middle" font-size="18" fill="#111827">propagation coordinate tau (ps)</text>
  <text transform="translate(50,290) rotate(-90)" text-anchor="middle" font-size="18" fill="#111827">log10 intensity gain</text>
  <text x="470" y="36" text-anchor="middle" font-size="20" font-weight="600" fill="#111827">Linear convective growth for different seed slices</text><line x1="105" y1="70" x2="105" y2="510" stroke="#e5e7eb"/><text x="105" y="534" text-anchor="middle" font-size="13">0.00</text><line x1="251" y1="70" x2="251" y2="510" stroke="#e5e7eb"/><text x="251" y="534" text-anchor="middle" font-size="13">0.05</text><line x1="397" y1="70" x2="397" y2="510" stroke="#e5e7eb"/><text x="397" y="534" text-anchor="middle" font-size="13">0.10</text><line x1="543" y1="70" x2="543" y2="510" stroke="#e5e7eb"/><text x="543" y="534" text-anchor="middle" font-size="13">0.15</text><line x1="689" y1="70" x2="689" y2="510" stroke="#e5e7eb"/><text x="689" y="534" text-anchor="middle" font-size="13">0.20</text><line x1="835" y1="70" x2="835" y2="510" stroke="#e5e7eb"/><text x="835" y="534" text-anchor="middle" font-size="13">0.25</text><line x1="105" y1="510" x2="835" y2="510" stroke="#e5e7eb"/><text x="93" y="514" text-anchor="end" font-size="13">0</text><line x1="105" y1="436.6666666666667" x2="835" y2="436.6666666666667" stroke="#e5e7eb"/><text x="93" y="440.6666666666667" text-anchor="end" font-size="13">1</text><line x1="105" y1="363.33333333333337" x2="835" y2="363.33333333333337" stroke="#e5e7eb"/><text x="93" y="367.33333333333337" text-anchor="end" font-size="13">2</text><line x1="105" y1="290" x2="835" y2="290" stroke="#e5e7eb"/><text x="93" y="294" text-anchor="end" font-size="13">3</text><line x1="105" y1="216.66666666666669" x2="835" y2="216.66666666666669" stroke="#e5e7eb"/><text x="93" y="220.66666666666669" text-anchor="end" font-size="13">4</text><line x1="105" y1="143.33333333333331" x2="835" y2="143.33333333333331" stroke="#e5e7eb"/><text x="93" y="147.33333333333331" text-anchor="end" font-size="13">5</text><line x1="105" y1="70" x2="835" y2="70" stroke="#e5e7eb"/><text x="93" y="74" text-anchor="end" font-size="13">6</text><rect x="105" y="70" width="730" height="440" fill="none" stroke="#111827"/><path d="M105.00,510.00 L107.03,509.63 L109.06,509.25 L111.08,508.88 L113.11,508.51 L115.14,508.14 L117.17,507.77 L119.19,507.40 L121.22,507.03 L123.25,506.66 L125.28,506.30 L127.31,505.94 L129.33,505.57 L131.36,505.21 L133.39,504.85 L135.42,504.49 L137.44,504.13 L139.47,503.77 L141.50,503.41 L143.53,503.06 L145.56,502.70 L147.58,502.35 L149.61,501.99 L151.64,501.64 L153.67,501.29 L155.69,500.94 L157.72,500.59 L159.75,500.24 L161.78,499.89 L163.81,499.55 L165.83,499.20 L167.86,498.85 L169.89,498.51 L171.92,498.17 L173.94,497.82 L175.97,497.48 L178.00,497.14 L180.03,496.80 L182.06,496.46 L184.08,496.12 L186.11,495.79 L188.14,495.45 L190.17,495.11 L192.19,494.78 L194.22,494.44 L196.25,494.11 L198.28,493.78 L200.31,493.45 L202.33,493.11 L204.36,492.78 L206.39,492.45 L208.42,492.13 L210.44,491.80 L212.47,491.47 L214.50,491.14 L216.53,490.82 L218.56,490.49 L220.58,490.17 L222.61,489.85 L224.64,489.52 L226.67,489.20 L228.69,488.88 L230.72,488.56 L232.75,488.24 L234.78,487.92 L236.81,487.60 L238.83,487.28 L240.86,486.97 L242.89,486.65 L244.92,486.34 L246.94,486.02 L248.97,485.71 L251.00,485.39 L253.03,485.08 L255.06,484.77 L257.08,484.46 L259.11,484.15 L261.14,483.83 L263.17,483.53 L265.19,483.22 L267.22,482.91 L269.25,482.60 L271.28,482.29 L273.31,481.99 L275.33,481.68 L277.36,481.38 L279.39,481.07 L281.42,480.77 L283.44,480.47 L285.47,480.16 L287.50,479.86 L289.53,479.56 L291.56,479.26 L293.58,478.96 L295.61,478.66 L297.64,478.36 L299.67,478.06 L301.69,477.76 L303.72,477.47 L305.75,477.17 L307.78,476.87 L309.81,476.58 L311.83,476.28 L313.86,475.99 L315.89,475.70 L317.92,475.40 L319.94,475.11 L321.97,474.82 L324.00,474.53 L326.03,474.24 L328.06,473.94 L330.08,473.65 L332.11,473.37 L334.14,473.08 L336.17,472.79 L338.19,472.50 L340.22,472.21 L342.25,471.93 L344.28,471.64 L346.31,471.36 L348.33,471.07 L350.36,470.79 L352.39,470.50 L354.42,470.22 L356.44,469.94 L358.47,469.65 L360.50,469.37 L362.53,469.09 L364.56,468.81 L366.58,468.53 L368.61,468.25 L370.64,467.97 L372.67,467.69 L374.69,467.41 L376.72,467.13 L378.75,466.85 L380.78,466.58 L382.81,466.30 L384.83,466.03 L386.86,465.75 L388.89,465.47 L390.92,465.20 L392.94,464.93 L394.97,464.65 L397.00,464.38 L399.03,464.11 L401.06,463.83 L403.08,463.56 L405.11,463.29 L407.14,463.02 L409.17,462.75 L411.19,462.48 L413.22,462.21 L415.25,461.94 L417.28,461.67 L419.31,461.40 L421.33,461.13 L423.36,460.87 L425.39,460.60 L427.42,460.33 L429.44,460.07 L431.47,459.80 L433.50,459.54 L435.53,459.27 L437.56,459.01 L439.58,458.74 L441.61,458.48 L443.64,458.21 L445.67,457.95 L447.69,457.69 L449.72,457.43 L451.75,457.17 L453.78,456.90 L455.81,456.64 L457.83,456.38 L459.86,456.12 L461.89,455.86 L463.92,455.60 L465.94,455.35 L467.97,455.09 L470.00,454.83 L472.03,454.57 L474.06,454.31 L476.08,454.06 L478.11,453.80 L480.14,453.54 L482.17,453.29 L484.19,453.03 L486.22,452.78 L488.25,452.52 L490.28,452.27 L492.31,452.02 L494.33,451.76 L496.36,451.51 L498.39,451.26 L500.42,451.00 L502.44,450.75 L504.47,450.50 L506.50,450.25 L508.53,450.00 L510.56,449.75 L512.58,449.50 L514.61,449.25 L516.64,449.00 L518.67,448.75 L520.69,448.50 L522.72,448.25 L524.75,448.00 L526.78,447.76 L528.81,447.51 L530.83,447.26 L532.86,447.02 L534.89,446.77 L536.92,446.52 L538.94,446.28 L540.97,446.03 L543.00,445.79 L545.03,445.54 L547.06,445.30 L549.08,445.05 L551.11,444.81 L553.14,444.57 L555.17,444.33 L557.19,444.08 L559.22,443.84 L561.25,443.60 L563.28,443.36 L565.31,443.12 L567.33,442.87 L569.36,442.63 L571.39,442.39 L573.42,442.15 L575.44,441.91 L577.47,441.67 L579.50,441.43 L581.53,441.20 L583.56,440.96 L585.58,440.72 L587.61,440.48 L589.64,440.24 L591.67,440.01 L593.69,439.77 L595.72,439.53 L597.75,439.30 L599.78,439.06 L601.81,438.82 L603.83,438.59 L605.86,438.35 L607.89,438.12 L609.92,437.88 L611.94,437.65 L613.97,437.42 L616.00,437.18 L618.03,436.95 L620.06,436.72 L622.08,436.48 L624.11,436.25 L626.14,436.02 L628.17,435.79 L630.19,435.56 L632.22,435.32 L634.25,435.09 L636.28,434.86 L638.31,434.63 L640.33,434.40 L642.36,434.17 L644.39,433.94 L646.42,433.71 L648.44,433.48 L650.47,433.25 L652.50,433.03 L654.53,432.80 L656.56,432.57 L658.58,432.34 L660.61,432.11 L662.64,431.89 L664.67,431.66 L666.69,431.43 L668.72,431.21 L670.75,430.98 L672.78,430.76 L674.81,430.53 L676.83,430.31 L678.86,430.08 L680.89,429.86 L682.92,429.63 L684.94,429.41 L686.97,429.18 L689.00,428.96 L691.03,428.74 L693.06,428.51 L695.08,428.29 L697.11,428.07 L699.14,427.84 L701.17,427.62 L703.19,427.40 L705.22,427.18 L707.25,426.96 L709.28,426.74 L711.31,426.51 L713.33,426.29 L715.36,426.07 L717.39,425.85 L719.42,425.63 L721.44,425.41 L723.47,425.19 L725.50,424.97 L727.53,424.76 L729.56,424.54 L731.58,424.32 L733.61,424.10 L735.64,423.88 L737.67,423.66 L739.69,423.45 L741.72,423.23 L743.75,423.01 L745.78,422.80 L747.81,422.58 L749.83,422.36 L751.86,422.15 L753.89,421.93 L755.92,421.71 L757.94,421.50 L759.97,421.28 L762.00,421.07 L764.03,420.85 L766.06,420.64 L768.08,420.43 L770.11,420.21 L772.14,420.00 L774.17,419.78 L776.19,419.57 L778.22,419.36 L780.25,419.14 L782.28,418.93 L784.31,418.72 L786.33,418.51 L788.36,418.30 L790.39,418.08 L792.42,417.87 L794.44,417.66 L796.47,417.45 L798.50,417.24 L800.53,417.03 L802.56,416.82 L804.58,416.61 L806.61,416.40 L808.64,416.19 L810.67,415.98 L812.69,415.77 L814.72,415.56 L816.75,415.35 L818.78,415.14 L820.81,414.93 L822.83,414.72 L824.86,414.52 L826.89,414.31 L828.92,414.10 L830.94,413.89 L832.97,413.68 L835.00,413.48 " fill="none" stroke="#2563eb" stroke-width="3"/><line x1="863" y1="100" x2="893" y2="100" stroke="#2563eb" stroke-width="3"/><text x="903" y="105" font-size="14" fill="#111827">zeta=0.02 ps</text><path d="M105.00,510.00 L107.03,509.06 L109.06,508.14 L111.08,507.21 L113.11,506.30 L115.14,505.39 L117.17,504.49 L119.19,503.59 L121.22,502.70 L123.25,501.82 L125.28,500.94 L127.31,500.07 L129.33,499.20 L131.36,498.34 L133.39,497.48 L135.42,496.63 L137.44,495.79 L139.47,494.95 L141.50,494.11 L143.53,493.28 L145.56,492.45 L147.58,491.63 L149.61,490.82 L151.64,490.01 L153.67,489.20 L155.69,488.40 L157.72,487.60 L159.75,486.81 L161.78,486.02 L163.81,485.24 L165.83,484.46 L167.86,483.68 L169.89,482.91 L171.92,482.14 L173.94,481.38 L175.97,480.62 L178.00,479.86 L180.03,479.11 L182.06,478.36 L184.08,477.61 L186.11,476.87 L188.14,476.14 L190.17,475.40 L192.19,474.67 L194.22,473.94 L196.25,473.22 L198.28,472.50 L200.31,471.78 L202.33,471.07 L204.36,470.36 L206.39,469.65 L208.42,468.95 L210.44,468.25 L212.47,467.55 L214.50,466.85 L216.53,466.16 L218.56,465.47 L220.58,464.79 L222.61,464.11 L224.64,463.43 L226.67,462.75 L228.69,462.07 L230.72,461.40 L232.75,460.73 L234.78,460.07 L236.81,459.40 L238.83,458.74 L240.86,458.08 L242.89,457.43 L244.92,456.77 L246.94,456.12 L248.97,455.48 L251.00,454.83 L253.03,454.19 L255.06,453.54 L257.08,452.91 L259.11,452.27 L261.14,451.64 L263.17,451.00 L265.19,450.38 L267.22,449.75 L269.25,449.12 L271.28,448.50 L273.31,447.88 L275.33,447.26 L277.36,446.65 L279.39,446.03 L281.42,445.42 L283.44,444.81 L285.47,444.20 L287.50,443.60 L289.53,442.99 L291.56,442.39 L293.58,441.79 L295.61,441.20 L297.64,440.60 L299.67,440.01 L301.69,439.41 L303.72,438.82 L305.75,438.24 L307.78,437.65 L309.81,437.07 L311.83,436.48 L313.86,435.90 L315.89,435.32 L317.92,434.75 L319.94,434.17 L321.97,433.60 L324.00,433.03 L326.03,432.46 L328.06,431.89 L330.08,431.32 L332.11,430.76 L334.14,430.19 L336.17,429.63 L338.19,429.07 L340.22,428.51 L342.25,427.96 L344.28,427.40 L346.31,426.85 L348.33,426.29 L350.36,425.74 L352.39,425.19 L354.42,424.65 L356.44,424.10 L358.47,423.56 L360.50,423.01 L362.53,422.47 L364.56,421.93 L366.58,421.39 L368.61,420.85 L370.64,420.32 L372.67,419.78 L374.69,419.25 L376.72,418.72 L378.75,418.19 L380.78,417.66 L382.81,417.13 L384.83,416.61 L386.86,416.08 L388.89,415.56 L390.92,415.04 L392.94,414.52 L394.97,414.00 L397.00,413.48 L399.03,412.96 L401.06,412.44 L403.08,411.93 L405.11,411.42 L407.14,410.91 L409.17,410.39 L411.19,409.89 L413.22,409.38 L415.25,408.87 L417.28,408.36 L419.31,407.86 L421.33,407.36 L423.36,406.85 L425.39,406.35 L427.42,405.85 L429.44,405.35 L431.47,404.86 L433.50,404.36 L435.53,403.86 L437.56,403.37 L439.58,402.88 L441.61,402.38 L443.64,401.89 L445.67,401.40 L447.69,400.91 L449.72,400.43 L451.75,399.94 L453.78,399.46 L455.81,398.97 L457.83,398.49 L459.86,398.00 L461.89,397.52 L463.92,397.04 L465.94,396.56 L467.97,396.09 L470.00,395.61 L472.03,395.13 L474.06,394.66 L476.08,394.18 L478.11,393.71 L480.14,393.24 L482.17,392.77 L484.19,392.29 L486.22,391.83 L488.25,391.36 L490.28,390.89 L492.31,390.42 L494.33,389.96 L496.36,389.49 L498.39,389.03 L500.42,388.57 L502.44,388.10 L504.47,387.64 L506.50,387.18 L508.53,386.72 L510.56,386.26 L512.58,385.81 L514.61,385.35 L516.64,384.90 L518.67,384.44 L520.69,383.99 L522.72,383.53 L524.75,383.08 L526.78,382.63 L528.81,382.18 L530.83,381.73 L532.86,381.28 L534.89,380.83 L536.92,380.39 L538.94,379.94 L540.97,379.49 L543.00,379.05 L545.03,378.60 L547.06,378.16 L549.08,377.72 L551.11,377.28 L553.14,376.84 L555.17,376.40 L557.19,375.96 L559.22,375.52 L561.25,375.08 L563.28,374.65 L565.31,374.21 L567.33,373.77 L569.36,373.34 L571.39,372.91 L573.42,372.47 L575.44,372.04 L577.47,371.61 L579.50,371.18 L581.53,370.75 L583.56,370.32 L585.58,369.89 L587.61,369.46 L589.64,369.04 L591.67,368.61 L593.69,368.18 L595.72,367.76 L597.75,367.33 L599.78,366.91 L601.81,366.49 L603.83,366.07 L605.86,365.64 L607.89,365.22 L609.92,364.80 L611.94,364.38 L613.97,363.96 L616.00,363.55 L618.03,363.13 L620.06,362.71 L622.08,362.30 L624.11,361.88 L626.14,361.47 L628.17,361.05 L630.19,360.64 L632.22,360.23 L634.25,359.81 L636.28,359.40 L638.31,358.99 L640.33,358.58 L642.36,358.17 L644.39,357.76 L646.42,357.35 L648.44,356.95 L650.47,356.54 L652.50,356.13 L654.53,355.73 L656.56,355.32 L658.58,354.92 L660.61,354.51 L662.64,354.11 L664.67,353.71 L666.69,353.31 L668.72,352.90 L670.75,352.50 L672.78,352.10 L674.81,351.70 L676.83,351.30 L678.86,350.90 L680.89,350.51 L682.92,350.11 L684.94,349.71 L686.97,349.32 L689.00,348.92 L691.03,348.52 L693.06,348.13 L695.08,347.74 L697.11,347.34 L699.14,346.95 L701.17,346.56 L703.19,346.17 L705.22,345.77 L707.25,345.38 L709.28,344.99 L711.31,344.60 L713.33,344.21 L715.36,343.83 L717.39,343.44 L719.42,343.05 L721.44,342.66 L723.47,342.28 L725.50,341.89 L727.53,341.51 L729.56,341.12 L731.58,340.74 L733.61,340.35 L735.64,339.97 L737.67,339.59 L739.69,339.21 L741.72,338.82 L743.75,338.44 L745.78,338.06 L747.81,337.68 L749.83,337.30 L751.86,336.92 L753.89,336.54 L755.92,336.17 L757.94,335.79 L759.97,335.41 L762.00,335.03 L764.03,334.66 L766.06,334.28 L768.08,333.91 L770.11,333.53 L772.14,333.16 L774.17,332.78 L776.19,332.41 L778.22,332.04 L780.25,331.67 L782.28,331.29 L784.31,330.92 L786.33,330.55 L788.36,330.18 L790.39,329.81 L792.42,329.44 L794.44,329.07 L796.47,328.70 L798.50,328.34 L800.53,327.97 L802.56,327.60 L804.58,327.23 L806.61,326.87 L808.64,326.50 L810.67,326.14 L812.69,325.77 L814.72,325.41 L816.75,325.04 L818.78,324.68 L820.81,324.32 L822.83,323.95 L824.86,323.59 L826.89,323.23 L828.92,322.87 L830.94,322.51 L832.97,322.15 L835.00,321.79 " fill="none" stroke="#059669" stroke-width="3"/><line x1="863" y1="130" x2="893" y2="130" stroke="#059669" stroke-width="3"/><text x="903" y="135" font-size="14" fill="#111827">zeta=0.05 ps</text><path d="M105.00,510.00 L107.03,508.14 L109.06,506.30 L111.08,504.49 L113.11,502.70 L115.14,500.94 L117.17,499.20 L119.19,497.48 L121.22,495.79 L123.25,494.11 L125.28,492.45 L127.31,490.82 L129.33,489.20 L131.36,487.60 L133.39,486.02 L135.42,484.46 L137.44,482.91 L139.47,481.38 L141.50,479.86 L143.53,478.36 L145.56,476.87 L147.58,475.40 L149.61,473.94 L151.64,472.50 L153.67,471.07 L155.69,469.65 L157.72,468.25 L159.75,466.85 L161.78,465.47 L163.81,464.11 L165.83,462.75 L167.86,461.40 L169.89,460.07 L171.92,458.74 L173.94,457.43 L175.97,456.12 L178.00,454.83 L180.03,453.54 L182.06,452.27 L184.08,451.00 L186.11,449.75 L188.14,448.50 L190.17,447.26 L192.19,446.03 L194.22,444.81 L196.25,443.60 L198.28,442.39 L200.31,441.20 L202.33,440.01 L204.36,438.82 L206.39,437.65 L208.42,436.48 L210.44,435.32 L212.47,434.17 L214.50,433.03 L216.53,431.89 L218.56,430.76 L220.58,429.63 L222.61,428.51 L224.64,427.40 L226.67,426.29 L228.69,425.19 L230.72,424.10 L232.75,423.01 L234.78,421.93 L236.81,420.85 L238.83,419.78 L240.86,418.72 L242.89,417.66 L244.92,416.61 L246.94,415.56 L248.97,414.52 L251.00,413.48 L253.03,412.44 L255.06,411.42 L257.08,410.39 L259.11,409.38 L261.14,408.36 L263.17,407.36 L265.19,406.35 L267.22,405.35 L269.25,404.36 L271.28,403.37 L273.31,402.38 L275.33,401.40 L277.36,400.43 L279.39,399.46 L281.42,398.49 L283.44,397.52 L285.47,396.56 L287.50,395.61 L289.53,394.66 L291.56,393.71 L293.58,392.77 L295.61,391.83 L297.64,390.89 L299.67,389.96 L301.69,389.03 L303.72,388.10 L305.75,387.18 L307.78,386.26 L309.81,385.35 L311.83,384.44 L313.86,383.53 L315.89,382.63 L317.92,381.73 L319.94,380.83 L321.97,379.94 L324.00,379.05 L326.03,378.16 L328.06,377.28 L330.08,376.40 L332.11,375.52 L334.14,374.65 L336.17,373.77 L338.19,372.91 L340.22,372.04 L342.25,371.18 L344.28,370.32 L346.31,369.46 L348.33,368.61 L350.36,367.76 L352.39,366.91 L354.42,366.07 L356.44,365.22 L358.47,364.38 L360.50,363.55 L362.53,362.71 L364.56,361.88 L366.58,361.05 L368.61,360.23 L370.64,359.40 L372.67,358.58 L374.69,357.76 L376.72,356.95 L378.75,356.13 L380.78,355.32 L382.81,354.51 L384.83,353.71 L386.86,352.90 L388.89,352.10 L390.92,351.30 L392.94,350.51 L394.97,349.71 L397.00,348.92 L399.03,348.13 L401.06,347.34 L403.08,346.56 L405.11,345.77 L407.14,344.99 L409.17,344.21 L411.19,343.44 L413.22,342.66 L415.25,341.89 L417.28,341.12 L419.31,340.35 L421.33,339.59 L423.36,338.82 L425.39,338.06 L427.42,337.30 L429.44,336.54 L431.47,335.79 L433.50,335.03 L435.53,334.28 L437.56,333.53 L439.58,332.78 L441.61,332.04 L443.64,331.29 L445.67,330.55 L447.69,329.81 L449.72,329.07 L451.75,328.34 L453.78,327.60 L455.81,326.87 L457.83,326.14 L459.86,325.41 L461.89,324.68 L463.92,323.95 L465.94,323.23 L467.97,322.51 L470.00,321.79 L472.03,321.07 L474.06,320.35 L476.08,319.63 L478.11,318.92 L480.14,318.21 L482.17,317.50 L484.19,316.79 L486.22,316.08 L488.25,315.37 L490.28,314.67 L492.31,313.97 L494.33,313.27 L496.36,312.57 L498.39,311.87 L500.42,311.17 L502.44,310.48 L504.47,309.78 L506.50,309.09 L508.53,308.40 L510.56,307.71 L512.58,307.02 L514.61,306.34 L516.64,305.65 L518.67,304.97 L520.69,304.29 L522.72,303.61 L524.75,302.93 L526.78,302.25 L528.81,301.58 L530.83,300.90 L532.86,300.23 L534.89,299.56 L536.92,298.89 L538.94,298.22 L540.97,297.55 L543.00,296.89 L545.03,296.22 L547.06,295.56 L549.08,294.90 L551.11,294.24 L553.14,293.58 L555.17,292.92 L557.19,292.26 L559.22,291.61 L561.25,290.95 L563.28,290.30 L565.31,289.65 L567.33,289.00 L569.36,288.35 L571.39,287.70 L573.42,287.05 L575.44,286.41 L577.47,285.76 L579.50,285.12 L581.53,284.48 L583.56,283.84 L585.58,283.20 L587.61,282.56 L589.64,281.92 L591.67,281.28 L593.69,280.65 L595.72,280.02 L597.75,279.38 L599.78,278.75 L601.81,278.12 L603.83,277.49 L605.86,276.86 L607.89,276.24 L609.92,275.61 L611.94,274.99 L613.97,274.36 L616.00,273.74 L618.03,273.12 L620.06,272.50 L622.08,271.88 L624.11,271.26 L626.14,270.65 L628.17,270.03 L630.19,269.41 L632.22,268.80 L634.25,268.19 L636.28,267.58 L638.31,266.97 L640.33,266.36 L642.36,265.75 L644.39,265.14 L646.42,264.53 L648.44,263.93 L650.47,263.32 L652.50,262.72 L654.53,262.12 L656.56,261.51 L658.58,260.91 L660.61,260.31 L662.64,259.71 L664.67,259.12 L666.69,258.52 L668.72,257.92 L670.75,257.33 L672.78,256.74 L674.81,256.14 L676.83,255.55 L678.86,254.96 L680.89,254.37 L682.92,253.78 L684.94,253.19 L686.97,252.60 L689.00,252.02 L691.03,251.43 L693.06,250.85 L695.08,250.26 L697.11,249.68 L699.14,249.10 L701.17,248.52 L703.19,247.94 L705.22,247.36 L707.25,246.78 L709.28,246.20 L711.31,245.62 L713.33,245.05 L715.36,244.47 L717.39,243.90 L719.42,243.33 L721.44,242.75 L723.47,242.18 L725.50,241.61 L727.53,241.04 L729.56,240.47 L731.58,239.90 L733.61,239.34 L735.64,238.77 L737.67,238.20 L739.69,237.64 L741.72,237.08 L743.75,236.51 L745.78,235.95 L747.81,235.39 L749.83,234.83 L751.86,234.27 L753.89,233.71 L755.92,233.15 L757.94,232.59 L759.97,232.03 L762.00,231.48 L764.03,230.92 L766.06,230.37 L768.08,229.81 L770.11,229.26 L772.14,228.71 L774.17,228.16 L776.19,227.60 L778.22,227.05 L780.25,226.50 L782.28,225.96 L784.31,225.41 L786.33,224.86 L788.36,224.31 L790.39,223.77 L792.42,223.22 L794.44,222.68 L796.47,222.14 L798.50,221.59 L800.53,221.05 L802.56,220.51 L804.58,219.97 L806.61,219.43 L808.64,218.89 L810.67,218.35 L812.69,217.81 L814.72,217.28 L816.75,216.74 L818.78,216.20 L820.81,215.67 L822.83,215.13 L824.86,214.60 L826.89,214.07 L828.92,213.54 L830.94,213.00 L832.97,212.47 L835.00,211.94 " fill="none" stroke="#d97706" stroke-width="3"/><line x1="863" y1="160" x2="893" y2="160" stroke="#d97706" stroke-width="3"/><text x="903" y="165" font-size="14" fill="#111827">zeta=0.10 ps</text><path d="M105.00,510.00 L107.03,506.30 L109.06,502.70 L111.08,499.20 L113.11,495.79 L115.14,492.45 L117.17,489.20 L119.19,486.02 L121.22,482.91 L123.25,479.86 L125.28,476.87 L127.31,473.94 L129.33,471.07 L131.36,468.25 L133.39,465.47 L135.42,462.75 L137.44,460.07 L139.47,457.43 L141.50,454.83 L143.53,452.27 L145.56,449.75 L147.58,447.26 L149.61,444.81 L151.64,442.39 L153.67,440.01 L155.69,437.65 L157.72,435.32 L159.75,433.03 L161.78,430.76 L163.81,428.51 L165.83,426.29 L167.86,424.10 L169.89,421.93 L171.92,419.78 L173.94,417.66 L175.97,415.56 L178.00,413.48 L180.03,411.42 L182.06,409.38 L184.08,407.36 L186.11,405.35 L188.14,403.37 L190.17,401.40 L192.19,399.46 L194.22,397.52 L196.25,395.61 L198.28,393.71 L200.31,391.83 L202.33,389.96 L204.36,388.10 L206.39,386.26 L208.42,384.44 L210.44,382.63 L212.47,380.83 L214.50,379.05 L216.53,377.28 L218.56,375.52 L220.58,373.77 L222.61,372.04 L224.64,370.32 L226.67,368.61 L228.69,366.91 L230.72,365.22 L232.75,363.55 L234.78,361.88 L236.81,360.23 L238.83,358.58 L240.86,356.95 L242.89,355.32 L244.92,353.71 L246.94,352.10 L248.97,350.51 L251.00,348.92 L253.03,347.34 L255.06,345.77 L257.08,344.21 L259.11,342.66 L261.14,341.12 L263.17,339.59 L265.19,338.06 L267.22,336.54 L269.25,335.03 L271.28,333.53 L273.31,332.04 L275.33,330.55 L277.36,329.07 L279.39,327.60 L281.42,326.14 L283.44,324.68 L285.47,323.23 L287.50,321.79 L289.53,320.35 L291.56,318.92 L293.58,317.50 L295.61,316.08 L297.64,314.67 L299.67,313.27 L301.69,311.87 L303.72,310.48 L305.75,309.09 L307.78,307.71 L309.81,306.34 L311.83,304.97 L313.86,303.61 L315.89,302.25 L317.92,300.90 L319.94,299.56 L321.97,298.22 L324.00,296.89 L326.03,295.56 L328.06,294.24 L330.08,292.92 L332.11,291.61 L334.14,290.30 L336.17,289.00 L338.19,287.70 L340.22,286.41 L342.25,285.12 L344.28,283.84 L346.31,282.56 L348.33,281.28 L350.36,280.02 L352.39,278.75 L354.42,277.49 L356.44,276.24 L358.47,274.99 L360.50,273.74 L362.53,272.50 L364.56,271.26 L366.58,270.03 L368.61,268.80 L370.64,267.58 L372.67,266.36 L374.69,265.14 L376.72,263.93 L378.75,262.72 L380.78,261.51 L382.81,260.31 L384.83,259.12 L386.86,257.92 L388.89,256.74 L390.92,255.55 L392.94,254.37 L394.97,253.19 L397.00,252.02 L399.03,250.85 L401.06,249.68 L403.08,248.52 L405.11,247.36 L407.14,246.20 L409.17,245.05 L411.19,243.90 L413.22,242.75 L415.25,241.61 L417.28,240.47 L419.31,239.34 L421.33,238.20 L423.36,237.08 L425.39,235.95 L427.42,234.83 L429.44,233.71 L431.47,232.59 L433.50,231.48 L435.53,230.37 L437.56,229.26 L439.58,228.16 L441.61,227.05 L443.64,225.96 L445.67,224.86 L447.69,223.77 L449.72,222.68 L451.75,221.59 L453.78,220.51 L455.81,219.43 L457.83,218.35 L459.86,217.28 L461.89,216.20 L463.92,215.13 L465.94,214.07 L467.97,213.00 L470.00,211.94 L472.03,210.88 L474.06,209.83 L476.08,208.77 L478.11,207.72 L480.14,206.68 L482.17,205.63 L484.19,204.59 L486.22,203.55 L488.25,202.51 L490.28,201.47 L492.31,200.44 L494.33,199.41 L496.36,198.38 L498.39,197.35 L500.42,196.33 L502.44,195.31 L504.47,194.29 L506.50,193.28 L508.53,192.26 L510.56,191.25 L512.58,190.24 L514.61,189.23 L516.64,188.23 L518.67,187.23 L520.69,186.23 L522.72,185.23 L524.75,184.23 L526.78,183.24 L528.81,182.25 L530.83,181.26 L532.86,180.27 L534.89,179.29 L536.92,178.31 L538.94,177.32 L540.97,176.35 L543.00,175.37 L545.03,174.40 L547.06,173.42 L549.08,172.45 L551.11,171.48 L553.14,170.52 L555.17,169.55 L557.19,168.59 L559.22,167.63 L561.25,166.67 L563.28,165.72 L565.31,164.76 L567.33,163.81 L569.36,162.86 L571.39,161.91 L573.42,160.96 L575.44,160.02 L577.47,159.08 L579.50,158.14 L581.53,157.20 L583.56,156.26 L585.58,155.32 L587.61,154.39 L589.64,153.46 L591.67,152.53 L593.69,151.60 L595.72,150.67 L597.75,149.75 L599.78,148.82 L601.81,147.90 L603.83,146.98 L605.86,146.07 L607.89,145.15 L609.92,144.24 L611.94,143.32 L613.97,142.41 L616.00,141.50 L618.03,140.59 L620.06,139.69 L622.08,138.78 L624.11,137.88 L626.14,136.98 L628.17,136.08 L630.19,135.18 L632.22,134.29 L634.25,133.39 L636.28,132.50 L638.31,131.61 L640.33,130.72 L642.36,129.83 L644.39,128.94 L646.42,128.06 L648.44,127.17 L650.47,126.29 L652.50,125.41 L654.53,124.53 L656.56,123.65 L658.58,122.78 L660.61,121.90 L662.64,121.03 L664.67,120.16 L666.69,119.29 L668.72,118.42 L670.75,117.55 L672.78,116.68 L674.81,115.82 L676.83,114.96 L678.86,114.09 L680.89,113.23 L682.92,112.38 L684.94,111.52 L686.97,110.66 L689.00,109.81 L691.03,108.95 L693.06,108.10 L695.08,107.25 L697.11,106.40 L699.14,105.55 L701.17,104.71 L703.19,103.86 L705.22,103.02 L707.25,102.18 L709.28,101.34 L711.31,100.50 L713.33,99.66 L715.36,98.82 L717.39,97.98 L719.42,97.15 L721.44,96.32 L723.47,95.48 L725.50,94.65 L727.53,93.82 L729.56,92.99 L731.58,92.17 L733.61,91.34 L735.64,90.52 L737.67,89.69 L739.69,88.87 L741.72,88.05 L743.75,87.23 L745.78,86.41 L747.81,85.60 L749.83,84.78 L751.86,83.96 L753.89,83.15 L755.92,82.34 L757.94,81.53 L759.97,80.72 L762.00,79.91 L764.03,79.10 L766.06,78.29 L768.08,77.49 L770.11,76.68 L772.14,75.88 L774.17,75.08 L776.19,74.28 L778.22,73.48 L780.25,72.68 L782.28,71.88 L784.31,71.09 L786.33,70.29 L788.36,70.00 L790.39,70.00 L792.42,70.00 L794.44,70.00 L796.47,70.00 L798.50,70.00 L800.53,70.00 L802.56,70.00 L804.58,70.00 L806.61,70.00 L808.64,70.00 L810.67,70.00 L812.69,70.00 L814.72,70.00 L816.75,70.00 L818.78,70.00 L820.81,70.00 L822.83,70.00 L824.86,70.00 L826.89,70.00 L828.92,70.00 L830.94,70.00 L832.97,70.00 L835.00,70.00 " fill="none" stroke="#dc2626" stroke-width="3"/><line x1="863" y1="190" x2="893" y2="190" stroke="#dc2626" stroke-width="3"/><text x="903" y="195" font-size="14" fill="#111827">zeta=0.20 ps</text><text x="470" y="610" text-anchor="middle" font-size="16" fill="#4b5563">Larger zeta means a seed slice stays in the gain region longer, so the same propagation time gives higher gain.</text></svg>